<svg width="14" height="18" viewBox="0 0 14 18" fill="none" xmlns="http://www.w3.org/2000/svg">
<path d="M0.101562 10.4375C0.101562 9.48438 0.278646 8.59115 0.632812 7.75781C0.992188 6.92448 1.48698 6.19271 2.11719 5.5625C2.7526 4.92708 3.48698 4.43229 4.32031 4.07812C5.15365 3.71875 6.04688 3.53906 7 3.53906C7.23958 3.53906 7.47396 3.55208 7.70312 3.57812C7.93229 3.59896 8.14583 3.63021 8.34375 3.67188L6.27344 1.60156C6.21615 1.53906 6.17188 1.46875 6.14062 1.39062C6.11458 1.3125 6.10156 1.23438 6.10156 1.15625C6.10156 0.973958 6.15885 0.822917 6.27344 0.703125C6.39323 0.578125 6.53906 0.515625 6.71094 0.515625C6.90365 0.515625 7.05729 0.578125 7.17188 0.703125L10.3828 3.96875C10.5182 4.10417 10.5859 4.26042 10.5859 4.4375C10.5859 4.52604 10.5703 4.60938 10.5391 4.6875C10.5078 4.76562 10.4557 4.83854 10.3828 4.90625L7.16406 8.14062C7.03906 8.26042 6.88802 8.32031 6.71094 8.32031C6.53906 8.32031 6.39323 8.26042 6.27344 8.14062C6.15885 8.02083 6.10156 7.8724 6.10156 7.69531C6.10156 7.61198 6.11458 7.53385 6.14062 7.46094C6.16667 7.38281 6.21354 7.3125 6.28125 7.25L8.60938 4.9375C8.38021 4.88542 8.1276 4.84896 7.85156 4.82812C7.58073 4.80208 7.29688 4.78906 7 4.78906C6.22396 4.78906 5.49479 4.9349 4.8125 5.22656C4.13021 5.51823 3.52865 5.92448 3.00781 6.44531C2.49219 6.96094 2.08854 7.5599 1.79688 8.24219C1.50521 8.92448 1.35938 9.65365 1.35938 10.4297C1.35938 11.2109 1.50521 11.9427 1.79688 12.625C2.08854 13.3073 2.49219 13.9062 3.00781 14.4219C3.52865 14.9375 4.13021 15.3411 4.8125 15.6328C5.49479 15.9245 6.22396 16.0703 7 16.0703C7.78125 16.0703 8.51302 15.9245 9.19531 15.6328C9.8776 15.3411 10.4766 14.9375 10.9922 14.4219C11.5078 13.9062 11.9115 13.3073 12.2031 12.625C12.4948 11.9427 12.6406 11.2109 12.6406 10.4297C12.6406 10.2422 12.6953 10.0885 12.8047 9.96875C12.9141 9.84375 13.0625 9.78125 13.25 9.78125C13.4427 9.78125 13.599 9.84375 13.7188 9.96875C13.8385 10.0885 13.8984 10.2448 13.8984 10.4375C13.8984 11.3906 13.7188 12.2839 13.3594 13.1172C13.0052 13.9505 12.5104 14.6849 11.875 15.3203C11.2448 15.9505 10.513 16.4427 9.67969 16.7969C8.84635 17.1562 7.95312 17.3359 7 17.3359C6.04688 17.3359 5.15365 17.1562 4.32031 16.7969C3.48698 16.4427 2.7526 15.9505 2.11719 15.3203C1.48698 14.6849 0.992188 13.9505 0.632812 13.1172C0.278646 12.2839 0.101562 11.3906 0.101562 10.4375Z" fill="#ECECEC" fill-opacity="0.75"/>
</svg>
