<svg width="22" height="22" viewBox="0 0 22 22" fill="none" xmlns="http://www.w3.org/2000/svg">
<path d="M6.7002 16.8945C5.58366 16.8945 5.02539 16.5299 5.02539 15.8008C5.02539 15.3542 5.16211 14.8779 5.43555 14.3721C5.70898 13.8662 6.10319 13.39 6.61816 12.9434C7.1377 12.4922 7.76432 12.1253 8.49805 11.8428C9.23633 11.5602 10.0703 11.4189 11 11.4189C11.9251 11.4189 12.7546 11.5602 13.4883 11.8428C14.2266 12.1253 14.8532 12.4922 15.3682 12.9434C15.8877 13.39 16.2842 13.8662 16.5576 14.3721C16.8311 14.8779 16.9678 15.3542 16.9678 15.8008C16.9678 16.5299 16.4095 16.8945 15.293 16.8945H6.7002ZM6.37891 15.8623H15.6211C15.7077 15.8623 15.7692 15.8486 15.8057 15.8213C15.8467 15.7939 15.8672 15.7438 15.8672 15.6709C15.8672 15.3883 15.7601 15.0648 15.5459 14.7002C15.3363 14.3356 15.0241 13.9824 14.6094 13.6406C14.1947 13.2988 13.6842 13.0163 13.0781 12.793C12.4766 12.5651 11.7839 12.4512 11 12.4512C10.2161 12.4512 9.52116 12.5651 8.91504 12.793C8.30892 13.0163 7.7985 13.2988 7.38379 13.6406C6.96908 13.9824 6.65462 14.3356 6.44043 14.7002C6.23079 15.0648 6.12598 15.3883 6.12598 15.6709C6.12598 15.7438 6.14421 15.7939 6.18066 15.8213C6.22168 15.8486 6.28776 15.8623 6.37891 15.8623ZM11 10.5645C10.4577 10.5645 9.96322 10.4209 9.5166 10.1338C9.06999 9.84668 8.71224 9.46159 8.44336 8.97852C8.17904 8.49089 8.04688 7.9554 8.04688 7.37207C8.04688 6.79329 8.17904 6.26693 8.44336 5.79297C8.71224 5.31901 9.06999 4.94076 9.5166 4.6582C9.96322 4.37565 10.4577 4.23438 11 4.23438C11.5469 4.23438 12.0436 4.37337 12.4902 4.65137C12.9368 4.92936 13.2923 5.30534 13.5566 5.7793C13.821 6.2487 13.9531 6.77507 13.9531 7.3584C13.9531 7.94629 13.8187 8.48405 13.5498 8.97168C13.2855 9.45475 12.93 9.84212 12.4834 10.1338C12.0368 10.4209 11.5423 10.5645 11 10.5645ZM11 9.53223C11.3372 9.53223 11.6449 9.43652 11.9229 9.24512C12.2054 9.04915 12.431 8.78711 12.5996 8.45898C12.7682 8.1263 12.8525 7.75944 12.8525 7.3584C12.8525 6.96191 12.7682 6.60645 12.5996 6.29199C12.4355 5.97298 12.2122 5.72233 11.9297 5.54004C11.6517 5.35775 11.3418 5.2666 11 5.2666C10.6628 5.2666 10.3529 5.36003 10.0703 5.54688C9.79232 5.72917 9.56901 5.97982 9.40039 6.29883C9.23177 6.61784 9.14746 6.97559 9.14746 7.37207C9.14746 7.77311 9.23177 8.1377 9.40039 8.46582C9.57357 8.79395 9.79915 9.05371 10.0771 9.24512C10.3597 9.43652 10.6673 9.53223 11 9.53223Z" fill="#ECECEC" fill-opacity="0.75"/>
</svg>
