<svg width="22" height="25" viewBox="0 0 22 25" fill="none" xmlns="http://www.w3.org/2000/svg">
<path d="M19.7139 21.8735C18.6397 23.4234 17.5008 24.9358 15.7665 24.9608C14.0322 24.9983 13.4756 23.9734 11.5084 23.9734C9.52817 23.9734 8.91987 24.9358 7.27617 24.9983C5.5807 25.0608 4.29939 23.3484 3.21222 21.836C0.999051 18.7488 -0.696419 13.0616 1.58146 9.23689C2.70746 7.33701 4.7265 6.13709 6.91378 6.09959C8.57042 6.0746 10.1494 7.18702 11.1719 7.18702C12.1814 7.18702 14.0969 5.84961 16.103 6.0496C16.9442 6.0871 19.2998 6.37458 20.814 8.52443C20.6976 8.59943 18.0055 10.1243 18.0314 13.2866C18.0702 17.0614 21.4612 18.3238 21.5 18.3363C21.4612 18.4238 20.9564 20.1362 19.7139 21.8735ZM12.3238 1.87488C13.2686 0.837444 14.8346 0.0499967 16.1289 0C16.2971 1.4624 15.6888 2.9373 14.7828 3.98724C13.8898 5.04966 12.4144 5.87461 10.9648 5.76212C10.7707 4.32471 11.4954 2.82481 12.3238 1.87488Z" fill="#ECECEC"/>
</svg>
