<svg width="26" height="22" viewBox="0 0 26 22" fill="none" xmlns="http://www.w3.org/2000/svg">
<mask id="path-1-outside-1_725_231" maskUnits="userSpaceOnUse" x="-0.5" y="-0.5" width="27" height="23" fill="black">
<rect fill="white" x="-0.5" y="-0.5" width="27" height="23"/>
<path d="M14.646 1.64664C14.5995 1.69307 14.5627 1.74821 14.5375 1.80891C14.5123 1.86961 14.4994 1.93467 14.4994 2.00038C14.4994 2.06608 14.5123 2.13114 14.5375 2.19184C14.5627 2.25254 14.5995 2.30768 14.646 2.35411L22.7921 10.5001L1.99999 10.5001C1.86739 10.5001 1.74021 10.5528 1.64644 10.6465C1.55268 10.7403 1.5 10.8675 1.5 11.0001C1.5 11.1327 1.55268 11.2598 1.64644 11.3536C1.74021 11.4474 1.86739 11.5 1.99999 11.5L22.7921 11.5L14.646 19.646C14.5996 19.6925 14.5627 19.7476 14.5376 19.8083C14.5124 19.869 14.4995 19.934 14.4995 19.9997C14.4995 20.0654 14.5124 20.1305 14.5376 20.1912C14.5627 20.2519 14.5996 20.307 14.646 20.3535C14.6925 20.3999 14.7476 20.4368 14.8083 20.4619C14.869 20.4871 14.9341 20.5 14.9998 20.5C15.0655 20.5 15.1305 20.4871 15.1912 20.4619C15.2519 20.4368 15.3071 20.3999 15.3535 20.3535L24.3534 11.3538C24.3998 11.3074 24.4367 11.2522 24.4619 11.1915C24.487 11.1308 24.5 11.0658 24.5 11.0001C24.5 10.9344 24.487 10.8693 24.4619 10.8086C24.4367 10.7479 24.3998 10.6928 24.3534 10.6463L15.3535 1.64664C15.3071 1.60015 15.2519 1.56327 15.1912 1.53811C15.1305 1.51295 15.0655 1.5 14.9998 1.5C14.9341 1.5 14.869 1.51295 14.8083 1.53811C14.7476 1.56327 14.6925 1.60015 14.646 1.64664Z"/>
</mask>
<path d="M14.646 1.64664C14.5995 1.69307 14.5627 1.74821 14.5375 1.80891C14.5123 1.86961 14.4994 1.93467 14.4994 2.00038C14.4994 2.06608 14.5123 2.13114 14.5375 2.19184C14.5627 2.25254 14.5995 2.30768 14.646 2.35411L22.7921 10.5001L1.99999 10.5001C1.86739 10.5001 1.74021 10.5528 1.64644 10.6465C1.55268 10.7403 1.5 10.8675 1.5 11.0001C1.5 11.1327 1.55268 11.2598 1.64644 11.3536C1.74021 11.4474 1.86739 11.5 1.99999 11.5L22.7921 11.5L14.646 19.646C14.5996 19.6925 14.5627 19.7476 14.5376 19.8083C14.5124 19.869 14.4995 19.934 14.4995 19.9997C14.4995 20.0654 14.5124 20.1305 14.5376 20.1912C14.5627 20.2519 14.5996 20.307 14.646 20.3535C14.6925 20.3999 14.7476 20.4368 14.8083 20.4619C14.869 20.4871 14.9341 20.5 14.9998 20.5C15.0655 20.5 15.1305 20.4871 15.1912 20.4619C15.2519 20.4368 15.3071 20.3999 15.3535 20.3535L24.3534 11.3538C24.3998 11.3074 24.4367 11.2522 24.4619 11.1915C24.487 11.1308 24.5 11.0658 24.5 11.0001C24.5 10.9344 24.487 10.8693 24.4619 10.8086C24.4367 10.7479 24.3998 10.6928 24.3534 10.6463L15.3535 1.64664C15.3071 1.60015 15.2519 1.56327 15.1912 1.53811C15.1305 1.51295 15.0655 1.5 14.9998 1.5C14.9341 1.5 14.869 1.51295 14.8083 1.53811C14.7476 1.56327 14.6925 1.60015 14.646 1.64664Z" fill="black"/>
<path d="M14.646 1.64664L15.4243 2.42403L15.4234 2.42489L14.646 1.64664ZM14.4994 2.00038L15.5994 2.00038L14.4994 2.00038ZM14.646 2.35411L15.4234 1.57586L15.4238 1.57629L14.646 2.35411ZM22.7921 10.5001L23.5699 9.72225L25.4478 11.6001L22.7921 11.6001L22.7921 10.5001ZM22.7921 11.5L22.7921 10.4L25.4478 10.4L23.5699 12.2779L22.7921 11.5ZM14.646 19.646L15.4238 20.4238V20.4238L14.646 19.646ZM14.9998 20.5L14.9998 19.4L14.9998 20.5ZM15.3535 20.3535L16.1313 21.1313V21.1313L15.3535 20.3535ZM24.3534 11.3538L23.5755 10.576L23.576 10.5755L24.3534 11.3538ZM24.3534 10.6463L23.576 11.4246L23.5755 11.4241L24.3534 10.6463ZM15.3535 1.64664L14.5757 2.42446L14.5753 2.42403L15.3535 1.64664ZM15.4234 2.42489C15.4792 2.36917 15.5234 2.303 15.5536 2.23015L13.5214 1.38767C13.6019 1.19343 13.7199 1.01697 13.8686 0.868379L15.4234 2.42489ZM15.5536 2.23015C15.5838 2.1573 15.5994 2.07922 15.5994 2.00038L13.3994 2.00038C13.3994 1.79012 13.4408 1.58191 13.5214 1.38767L15.5536 2.23015ZM15.5994 2.00038C15.5994 1.92152 15.5838 1.84344 15.5536 1.7706L13.5214 2.61308C13.4408 2.41884 13.3994 2.21064 13.3994 2.00038L15.5994 2.00038ZM15.5536 1.7706C15.5234 1.69775 15.4792 1.63158 15.4234 1.57586L13.8686 3.13237C13.7199 2.98378 13.6019 2.80732 13.5214 2.61308L15.5536 1.7706ZM15.4238 1.57629L23.5699 9.72225L22.0143 11.2779L13.8682 3.13194L15.4238 1.57629ZM22.7921 11.6001L1.99999 11.6001L1.99999 9.40007L22.7921 9.40007L22.7921 11.6001ZM1.99999 11.6001C2.15911 11.6001 2.31173 11.5369 2.42426 11.4243L0.868633 9.86869C1.1687 9.56863 1.57566 9.40007 1.99999 9.40007L1.99999 11.6001ZM2.42426 11.4243C2.53678 11.3118 2.6 11.1592 2.6 11.0001L0.4 11.0001C0.4 10.5757 0.568575 10.1687 0.868633 9.86869L2.42426 11.4243ZM2.6 11.0001C2.6 10.8409 2.53678 10.6883 2.42426 10.5758L0.868633 12.1314C0.568575 11.8314 0.4 11.4244 0.4 11.0001L2.6 11.0001ZM2.42426 10.5758C2.31173 10.4632 2.15912 10.4 1.99999 10.4L1.99999 12.6C1.57566 12.6 1.16869 12.4315 0.868633 12.1314L2.42426 10.5758ZM1.99999 10.4L22.7921 10.4L22.7921 12.6L1.99999 12.6L1.99999 10.4ZM23.5699 12.2779L15.4238 20.4238L13.8682 18.8682L22.0143 10.7222L23.5699 12.2779ZM15.4238 20.4238C15.4795 20.3681 15.5237 20.302 15.5538 20.2293L13.5213 19.3873C13.6017 19.1932 13.7196 19.0168 13.8682 18.8682L15.4238 20.4238ZM15.5538 20.2293C15.584 20.1565 15.5995 20.0785 15.5995 19.9997L13.3995 19.9997C13.3995 19.7896 13.4409 19.5815 13.5213 19.3873L15.5538 20.2293ZM15.5995 19.9997C15.5995 19.921 15.584 19.843 15.5538 19.7702L13.5213 20.6121C13.4409 20.418 13.3995 20.2099 13.3995 19.9997L15.5995 19.9997ZM15.5538 19.7702C15.5237 19.6975 15.4795 19.6313 15.4238 19.5757L13.8682 21.1313C13.7196 20.9827 13.6017 20.8063 13.5213 20.6121L15.5538 19.7702ZM15.4238 19.5757C15.3681 19.52 15.302 19.4758 15.2293 19.4456L14.3874 21.4782C14.1932 21.3978 14.0168 21.2799 13.8682 21.1313L15.4238 19.5757ZM15.2293 19.4456C15.1565 19.4155 15.0785 19.4 14.9998 19.4L14.9998 21.6C14.7896 21.6 14.5815 21.5586 14.3874 21.4782L15.2293 19.4456ZM14.9998 19.4C14.921 19.4 14.843 19.4155 14.7703 19.4456L15.6122 21.4782C15.418 21.5586 15.2099 21.6 14.9998 21.6L14.9998 19.4ZM14.7703 19.4456C14.6975 19.4758 14.6314 19.52 14.5757 19.5757L16.1313 21.1313C15.9827 21.2799 15.8063 21.3978 15.6122 21.4782L14.7703 19.4456ZM14.5757 19.5757L23.5755 10.576L25.1312 12.1316L16.1313 21.1313L14.5757 19.5757ZM23.576 10.5755C23.5202 10.6313 23.4759 10.6974 23.4457 10.7703L25.478 11.6128C25.3975 11.807 25.2795 11.9835 25.1307 12.1321L23.576 10.5755ZM23.4457 10.7703C23.4155 10.8431 23.4 10.9212 23.4 11.0001L25.6 11.0001C25.6 11.2103 25.5586 11.4185 25.478 11.6128L23.4457 10.7703ZM23.4 11.0001C23.4 11.0789 23.4155 11.157 23.4457 11.2298L25.478 10.3874C25.5586 10.5816 25.6 10.7898 25.6 11.0001L23.4 11.0001ZM23.4457 11.2298C23.4759 11.3027 23.5202 11.3689 23.576 11.4246L25.1307 9.86806C25.2795 10.0167 25.3975 10.1931 25.478 10.3874L23.4457 11.2298ZM23.5755 11.4241L14.5757 2.42446L16.1313 0.868812L25.1312 9.86849L23.5755 11.4241ZM14.5753 2.42403C14.631 2.47982 14.6972 2.52407 14.77 2.55426L15.6125 0.521957C15.8067 0.602472 15.9832 0.720482 16.1318 0.869245L14.5753 2.42403ZM14.77 2.55426C14.8429 2.58446 14.9209 2.6 14.9998 2.6L14.9998 0.4C15.21 0.4 15.4182 0.441435 15.6125 0.521957L14.77 2.55426ZM14.9998 2.6C15.0786 2.6 15.1567 2.58446 15.2295 2.55426L14.3871 0.521957C14.5813 0.441435 14.7895 0.4 14.9998 0.4L14.9998 2.6ZM15.2295 2.55426C15.3024 2.52407 15.3685 2.47981 15.4243 2.42403L13.8678 0.869245C14.0164 0.720489 14.1928 0.602476 14.3871 0.521957L15.2295 2.55426Z" fill="black" mask="url(#path-1-outside-1_725_231)"/>
</svg>
