<svg width="22" height="17" viewBox="0 0 22 17" fill="none" xmlns="http://www.w3.org/2000/svg">
<path fill-rule="evenodd" clip-rule="evenodd" d="M14.9589 0.959104C16.7889 0.833104 18.2029 1.9011 19.1439 3.1331C20.0919 4.3761 20.7449 5.9991 21.1039 7.5951C21.4609 9.1911 21.5569 10.9061 21.2599 12.3681C20.9749 13.7721 20.2139 15.3781 18.4929 15.8931C16.8729 16.3771 15.4529 15.6731 14.4409 14.8211C13.4249 13.9661 12.5649 12.7681 11.8889 11.6451C11.5727 11.1174 11.2758 10.5784 10.9989 10.0291C10.7223 10.578 10.4257 11.1167 10.1099 11.6441C9.43393 12.7681 8.57393 13.9661 7.55793 14.8211C6.54493 15.6731 5.12593 16.3771 3.50593 15.8931C1.78493 15.3781 1.02393 13.7731 0.738925 12.3681C0.442925 10.9061 0.538926 9.1911 0.895926 7.5951C1.25393 5.9991 1.90693 4.3751 2.85593 3.1331C3.79593 1.9011 5.20993 0.833104 7.03993 0.959104C8.75593 1.0791 10.0029 2.2421 10.7799 3.2281L10.9999 3.5171L11.2189 3.2271C11.9959 2.2421 13.2429 1.0781 14.9589 0.959104ZM6.83193 3.9521C6.41193 3.9231 5.86193 4.1381 5.23993 4.9541C4.62593 5.7591 4.11593 6.9471 3.82293 8.2521C3.53093 9.5571 3.48793 10.8311 3.67893 11.7721C3.84393 12.5821 4.10893 12.8731 4.27093 12.9751L4.33893 13.0091L4.36593 13.0191C4.59793 13.0891 4.97993 13.0691 5.62593 12.5251C6.27093 11.9831 6.92893 11.1121 7.53993 10.0981C7.81193 9.6451 8.06493 9.1811 8.29193 8.7351L8.55193 8.2101L8.78493 7.7131L8.99093 7.2551L9.16593 6.8481L9.30893 6.5021C9.11544 6.11347 8.89385 5.73948 8.64593 5.3831C8.00193 4.4671 7.35593 3.9891 6.83193 3.9531M15.1669 3.9531C14.6429 3.9901 13.9969 4.4681 13.3529 5.3841C13.105 5.74047 12.8834 6.11446 12.6899 6.5031L12.9169 7.0461L13.1069 7.4801L13.2139 7.7141L13.4479 8.2111L13.7079 8.7361C13.9349 9.1821 14.1869 9.6461 14.4589 10.0991C15.0699 11.1131 15.7289 11.9841 16.3719 12.5261C16.9729 13.0321 17.3449 13.0841 17.5819 13.0331L17.6339 13.0201C17.7639 12.9801 18.1169 12.7711 18.3199 11.7721C18.5099 10.8321 18.4689 9.5581 18.1759 8.2521C17.8839 6.9481 17.3739 5.7601 16.7589 4.9551C16.1359 4.1391 15.5869 3.9251 15.1669 3.9531Z" fill="#ECECEC"/>
</svg>
