<svg width="23" height="16" viewBox="0 0 23 16" fill="none" xmlns="http://www.w3.org/2000/svg">
<path d="M14.5 10C11.83 10 6.5 11.33 6.5 14V15C6.5 15.5523 6.94772 16 7.5 16H21.5C22.0523 16 22.5 15.5523 22.5 15V14C22.5 11.33 17.17 10 14.5 10ZM14.5 8C15.5609 8 16.5783 7.57857 17.3284 6.82843C18.0786 6.07828 18.5 5.06087 18.5 4C18.5 2.93913 18.0786 1.92172 17.3284 1.17157C16.5783 0.421427 15.5609 0 14.5 0C13.4391 0 12.4217 0.421427 11.6716 1.17157C10.9214 1.92172 10.5 2.93913 10.5 4C10.5 5.06087 10.9214 6.07828 11.6716 6.82843C12.4217 7.57857 13.4391 8 14.5 8Z" fill="#D9D9D9"/>
<path d="M6 9H7C7.55228 9 8 8.55228 8 8C8 7.44772 7.55228 7 7 7H6C5.44772 7 5 6.55228 5 6V5C5 4.44772 4.55228 4 4 4C3.44772 4 3 4.44772 3 5V6C3 6.55228 2.55228 7 2 7H1C0.447715 7 0 7.44772 0 8C0 8.55228 0.447715 9 1 9H2C2.55228 9 3 9.44772 3 10V11C3 11.5523 3.44772 12 4 12C4.55228 12 5 11.5523 5 11V10C5 9.44772 5.44772 9 6 9Z" fill="#D9D9D9"/>
</svg>
