<svg width="22" height="22" viewBox="0 0 22 22" fill="none" xmlns="http://www.w3.org/2000/svg">
<path d="M12.5928 16.8945H6.70703C5.58594 16.8945 5.02539 16.5299 5.02539 15.8008C5.02539 15.3542 5.16211 14.8779 5.43555 14.3721C5.70898 13.8662 6.10319 13.39 6.61816 12.9434C7.1377 12.4922 7.76432 12.1253 8.49805 11.8428C9.23633 11.5602 10.0703 11.4189 11 11.4189C11.6198 11.4189 12.1963 11.4873 12.7295 11.624C13.2673 11.7562 13.7549 11.9385 14.1924 12.1709C14.0465 12.2848 13.9098 12.4079 13.7822 12.54C13.6546 12.6676 13.5339 12.8066 13.4199 12.957C13.0872 12.8021 12.7158 12.679 12.3057 12.5879C11.9001 12.4967 11.4648 12.4512 11 12.4512C10.2161 12.4512 9.52116 12.5651 8.91504 12.793C8.30892 13.0163 7.7985 13.2988 7.38379 13.6406C6.97363 13.9824 6.66146 14.3356 6.44727 14.7002C6.23307 15.0648 6.12598 15.3883 6.12598 15.6709C6.12598 15.7438 6.14421 15.7939 6.18066 15.8213C6.22168 15.8486 6.28776 15.8623 6.37891 15.8623H12.4287C12.4333 16.04 12.4492 16.2155 12.4766 16.3887C12.5039 16.5618 12.5426 16.7305 12.5928 16.8945ZM10.9932 10.5645C10.4508 10.5645 9.95638 10.4209 9.50977 10.1338C9.06315 9.84212 8.7054 9.45475 8.43652 8.97168C8.1722 8.48405 8.04004 7.94629 8.04004 7.3584C8.04004 6.77507 8.1722 6.2487 8.43652 5.7793C8.7054 5.30534 9.06315 4.92936 9.50977 4.65137C9.95638 4.37337 10.4508 4.23438 10.9932 4.23438C11.5355 4.23438 12.0299 4.37565 12.4766 4.6582C12.9232 4.94076 13.2809 5.31901 13.5498 5.79297C13.8187 6.26693 13.9508 6.79329 13.9463 7.37207C13.9463 7.9554 13.8118 8.49089 13.543 8.97852C13.2786 9.46159 12.9232 9.84668 12.4766 10.1338C12.0299 10.4209 11.5355 10.5645 10.9932 10.5645ZM10.9932 9.53223C11.3258 9.53223 11.6335 9.43652 11.916 9.24512C12.1986 9.05371 12.4242 8.79395 12.5928 8.46582C12.7614 8.1377 12.8457 7.77311 12.8457 7.37207C12.8503 6.97559 12.7682 6.61784 12.5996 6.29883C12.431 5.97982 12.2054 5.72917 11.9229 5.54688C11.6449 5.36003 11.335 5.2666 10.9932 5.2666C10.6559 5.2666 10.346 5.35775 10.0635 5.54004C9.78548 5.72233 9.56217 5.97298 9.39355 6.29199C9.22493 6.60645 9.14062 6.96191 9.14062 7.3584C9.14062 7.75944 9.22493 8.1263 9.39355 8.45898C9.56217 8.78711 9.78776 9.04915 10.0703 9.24512C10.3529 9.43652 10.6605 9.53223 10.9932 9.53223ZM16.8379 19.1709C16.3639 19.1709 15.9173 19.0798 15.498 18.8975C15.0788 18.7197 14.7096 18.4714 14.3906 18.1523C14.0716 17.8333 13.821 17.4642 13.6387 17.0449C13.4564 16.6257 13.3652 16.1768 13.3652 15.6982C13.3652 15.2197 13.4564 14.7731 13.6387 14.3584C13.821 13.9391 14.0716 13.57 14.3906 13.251C14.7096 12.9274 15.0788 12.6768 15.498 12.499C15.9173 12.3167 16.3639 12.2256 16.8379 12.2256C17.3164 12.2256 17.7653 12.3167 18.1846 12.499C18.6038 12.6768 18.973 12.9251 19.292 13.2441C19.611 13.5632 19.8594 13.9323 20.0371 14.3516C20.2194 14.7708 20.3105 15.2197 20.3105 15.6982C20.3105 16.1722 20.2194 16.6188 20.0371 17.0381C19.8548 17.4574 19.6019 17.8265 19.2783 18.1455C18.9593 18.4645 18.5902 18.7152 18.1709 18.8975C17.7516 19.0798 17.3073 19.1709 16.8379 19.1709ZM16.8379 17.8721C16.9655 17.8721 17.0658 17.8333 17.1387 17.7559C17.2161 17.6784 17.2549 17.5781 17.2549 17.4551V16.1152H18.5947C18.7178 16.1152 18.818 16.0765 18.8955 15.999C18.973 15.9261 19.0117 15.8258 19.0117 15.6982C19.0117 15.5706 18.973 15.4704 18.8955 15.3975C18.818 15.32 18.7178 15.2812 18.5947 15.2812H17.2549V13.9414C17.2549 13.8184 17.2161 13.7181 17.1387 13.6406C17.0658 13.5632 16.9655 13.5244 16.8379 13.5244C16.7103 13.5244 16.6077 13.5632 16.5303 13.6406C16.4574 13.7181 16.4209 13.8184 16.4209 13.9414V15.2812H15.0811C14.958 15.2812 14.8577 15.32 14.7803 15.3975C14.7028 15.4704 14.6641 15.5706 14.6641 15.6982C14.6641 15.8258 14.7028 15.9261 14.7803 15.999C14.8577 16.0765 14.958 16.1152 15.0811 16.1152H16.4209V17.4551C16.4209 17.5781 16.4574 17.6784 16.5303 17.7559C16.6077 17.8333 16.7103 17.8721 16.8379 17.8721Z" fill="#ECECEC" fill-opacity="0.75"/>
</svg>
