<svg width="22" height="22" viewBox="0 0 22 22" fill="none" xmlns="http://www.w3.org/2000/svg">
<path d="M7.86914 17.0928C7.36784 17.0928 6.98503 16.9561 6.7207 16.6826C6.46094 16.4137 6.33105 16.0081 6.33105 15.4658V10.7559C6.33105 10.2181 6.46094 9.81478 6.7207 9.5459C6.98503 9.27246 7.36784 9.13574 7.86914 9.13574H14.124C14.6253 9.13574 15.0059 9.27246 15.2656 9.5459C15.5299 9.81478 15.6621 10.2181 15.6621 10.7559V15.4658C15.6621 16.0081 15.5299 16.4137 15.2656 16.6826C15.0059 16.9561 14.6253 17.0928 14.124 17.0928H7.86914ZM7.90332 16.0605H14.0898C14.2402 16.0605 14.3542 16.015 14.4316 15.9238C14.5137 15.8372 14.5547 15.7096 14.5547 15.541V10.6807C14.5547 10.512 14.5137 10.3844 14.4316 10.2979C14.3542 10.2113 14.2402 10.168 14.0898 10.168H7.90332C7.75749 10.168 7.64355 10.2113 7.56152 10.2979C7.47949 10.3844 7.43848 10.512 7.43848 10.6807V15.541C7.43848 15.7096 7.47949 15.8372 7.56152 15.9238C7.64355 16.015 7.75749 16.0605 7.90332 16.0605ZM7.52734 9.66211V7.50195C7.52734 6.64518 7.69141 5.93424 8.01953 5.36914C8.35221 4.80404 8.78288 4.38249 9.31152 4.10449C9.84017 3.8265 10.4007 3.6875 10.9932 3.6875C11.5902 3.6875 12.153 3.8265 12.6816 4.10449C13.2103 4.38249 13.6387 4.80404 13.9668 5.36914C14.2995 5.93424 14.4658 6.64518 14.4658 7.50195V9.66211H13.3857V7.3584C13.3857 6.78418 13.2741 6.30111 13.0508 5.90918C12.832 5.51725 12.5404 5.22103 12.1758 5.02051C11.8158 4.81999 11.4215 4.71973 10.9932 4.71973C10.5693 4.71973 10.1751 4.81999 9.81055 5.02051C9.45052 5.22103 9.16113 5.51725 8.94238 5.90918C8.72363 6.30111 8.61426 6.78418 8.61426 7.3584V9.66211H7.52734Z" fill="#FF4141"/>
</svg>
