<svg width="22" height="22" viewBox="0 0 22 22" fill="none" xmlns="http://www.w3.org/2000/svg">
<path d="M7.4248 11.3027C7.28809 11.3027 7.17415 11.2572 7.08301 11.166C6.99186 11.0749 6.94629 10.9609 6.94629 10.8242C6.94629 10.6921 6.99186 10.5804 7.08301 10.4893C7.17415 10.3981 7.28809 10.3525 7.4248 10.3525H10.5215V6.2168C10.5215 6.08464 10.5671 5.97298 10.6582 5.88184C10.7493 5.79069 10.861 5.74512 10.9932 5.74512C11.1299 5.74512 11.2438 5.79069 11.335 5.88184C11.4261 5.97298 11.4717 6.08464 11.4717 6.2168V10.8242C11.4717 10.9609 11.4261 11.0749 11.335 11.166C11.2438 11.2572 11.1299 11.3027 10.9932 11.3027H7.4248ZM11 17.5371C10.0384 17.5371 9.13607 17.3548 8.29297 16.9902C7.44987 16.6302 6.70931 16.1312 6.07129 15.4932C5.43327 14.8551 4.93197 14.1146 4.56738 13.2715C4.20736 12.4284 4.02734 11.526 4.02734 10.5645C4.02734 9.60286 4.20736 8.70052 4.56738 7.85742C4.93197 7.01432 5.43327 6.27376 6.07129 5.63574C6.70931 4.99316 7.44987 4.49186 8.29297 4.13184C9.13607 3.77181 10.0384 3.5918 11 3.5918C11.9616 3.5918 12.8639 3.77181 13.707 4.13184C14.5501 4.49186 15.2907 4.99316 15.9287 5.63574C16.5667 6.27376 17.0658 7.01432 17.4258 7.85742C17.7904 8.70052 17.9727 9.60286 17.9727 10.5645C17.9727 11.526 17.7904 12.4284 17.4258 13.2715C17.0658 14.1146 16.5667 14.8551 15.9287 15.4932C15.2907 16.1312 14.5501 16.6302 13.707 16.9902C12.8639 17.3548 11.9616 17.5371 11 17.5371ZM11 16.375C11.8021 16.375 12.554 16.2246 13.2559 15.9238C13.9577 15.623 14.5752 15.2061 15.1084 14.6729C15.6416 14.1396 16.0586 13.5221 16.3594 12.8203C16.6602 12.1185 16.8105 11.3665 16.8105 10.5645C16.8105 9.76237 16.6602 9.01042 16.3594 8.30859C16.0586 7.60221 15.6416 6.9847 15.1084 6.45605C14.5752 5.92285 13.9577 5.50586 13.2559 5.20508C12.554 4.9043 11.8021 4.75391 11 4.75391C10.1979 4.75391 9.44596 4.9043 8.74414 5.20508C8.04232 5.50586 7.4248 5.92285 6.8916 6.45605C6.3584 6.9847 5.94141 7.60221 5.64062 8.30859C5.33984 9.01042 5.18945 9.76237 5.18945 10.5645C5.18945 11.3665 5.33984 12.1185 5.64062 12.8203C5.94141 13.5221 6.3584 14.1396 6.8916 14.6729C7.4248 15.2061 8.04232 15.623 8.74414 15.9238C9.44596 16.2246 10.1979 16.375 11 16.375Z" fill="#ECECEC" fill-opacity="0.75"/>
</svg>
