<svg width="17" height="17" viewBox="0 0 17 17" fill="none" xmlns="http://www.w3.org/2000/svg">
<path d="M2.26709 16.0635C1.51025 16.0635 0.941406 15.873 0.560547 15.4922C0.18457 15.1113 -0.00341797 14.5376 -0.00341797 13.771V2.66016C-0.00341797 1.89844 0.18457 1.32471 0.560547 0.938965C0.941406 0.553223 1.51025 0.360352 2.26709 0.360352H10.0454C10.8022 0.360352 11.3687 0.553223 11.7446 0.938965C12.1255 1.32471 12.3159 1.89844 12.3159 2.66016V6.25635H11.1367V2.68213C11.1367 2.31592 11.0391 2.03516 10.8438 1.83984C10.6533 1.63965 10.3677 1.53955 9.98682 1.53955H2.32568C1.94482 1.53955 1.65674 1.63965 1.46143 1.83984C1.271 2.03516 1.17578 2.31592 1.17578 2.68213V13.749C1.17578 14.1152 1.271 14.396 1.46143 14.5913C1.65674 14.7866 1.94482 14.8843 2.32568 14.8843H9.98682C10.3677 14.8843 10.6533 14.7866 10.8438 14.5913C11.0391 14.396 11.1367 14.1152 11.1367 13.749V10.1675H12.3159V13.771C12.3159 14.5376 12.1255 15.1113 11.7446 15.4922C11.3687 15.873 10.8022 16.0635 10.0454 16.0635H2.26709ZM6.28809 8.21191C6.28809 8.05566 6.34424 7.91895 6.45654 7.80176C6.56885 7.68457 6.70068 7.62598 6.85205 7.62598H14.3008L15.3994 7.67725L14.9673 7.25977L13.7588 6.13184C13.6416 6.0293 13.583 5.89502 13.583 5.729C13.583 5.57275 13.6318 5.4458 13.7295 5.34814C13.8271 5.25049 13.9492 5.20166 14.0957 5.20166C14.2373 5.20166 14.3667 5.25781 14.4839 5.37012L16.813 7.78711C16.8862 7.86035 16.9351 7.93115 16.9595 7.99951C16.9888 8.06787 17.0034 8.13867 17.0034 8.21191C17.0034 8.28516 16.9888 8.35596 16.9595 8.42432C16.9351 8.49268 16.8862 8.56348 16.813 8.63672L14.4839 11.0464C14.3667 11.1636 14.2373 11.2222 14.0957 11.2222C13.9492 11.2222 13.8271 11.1709 13.7295 11.0684C13.6318 10.9658 13.583 10.8389 13.583 10.6875C13.583 10.5264 13.6416 10.3945 13.7588 10.292L14.9673 9.15674L15.3994 8.74658L14.3008 8.79053H6.85205C6.70068 8.79053 6.56885 8.73438 6.45654 8.62207C6.34424 8.50488 6.28809 8.36816 6.28809 8.21191Z" fill="#FF4141"/>
</svg>
