<svg width="22" height="22" viewBox="0 0 22 22" fill="none" xmlns="http://www.w3.org/2000/svg">
<path d="M6.21484 17.7285C5.97786 17.7285 5.79785 17.6715 5.6748 17.5576C5.55176 17.4482 5.48796 17.3092 5.4834 17.1406C5.47884 16.9766 5.53581 16.8148 5.6543 16.6553C5.75911 16.5231 5.88444 16.3522 6.03027 16.1426C6.17611 15.9375 6.32194 15.721 6.46777 15.4932C6.61361 15.2653 6.73893 15.0511 6.84375 14.8506C6.1237 14.5179 5.49251 14.085 4.9502 13.5518C4.41243 13.0186 3.99316 12.417 3.69238 11.7471C3.39616 11.0771 3.24805 10.3685 3.24805 9.62109C3.24805 8.75977 3.44629 7.95312 3.84277 7.20117C4.24382 6.44922 4.79753 5.79069 5.50391 5.22559C6.21484 4.65592 7.03971 4.21159 7.97852 3.89258C8.91732 3.56901 9.92448 3.40723 11 3.40723C11.4831 3.40723 11.9548 3.44141 12.415 3.50977C12.8753 3.57812 13.3174 3.67839 13.7412 3.81055C13.5088 4.10677 13.3379 4.45085 13.2285 4.84277C12.8822 4.74251 12.5221 4.66732 12.1484 4.61719C11.7747 4.5625 11.3919 4.53516 11 4.53516C10.0794 4.53516 9.2181 4.66732 8.41602 4.93164C7.61393 5.19596 6.90983 5.56283 6.30371 6.03223C5.70215 6.49707 5.23047 7.03711 4.88867 7.65234C4.55143 8.26302 4.38281 8.91927 4.38281 9.62109C4.38281 10.2272 4.51497 10.8037 4.7793 11.3506C5.04362 11.8975 5.42643 12.3988 5.92773 12.8545C6.43359 13.3057 7.04427 13.6976 7.75977 14.0303C7.97852 14.1351 8.10612 14.2627 8.14258 14.4131C8.17904 14.5635 8.14941 14.7275 8.05371 14.9053C7.93522 15.124 7.75977 15.3883 7.52734 15.6982C7.29492 16.0127 7.08301 16.2884 6.8916 16.5254C6.87337 16.5482 6.86882 16.5664 6.87793 16.5801C6.88704 16.5983 6.90527 16.6029 6.93262 16.5938C7.1377 16.5072 7.39746 16.375 7.71191 16.1973C8.02637 16.0195 8.35221 15.8213 8.68945 15.6025C9.02669 15.3883 9.33431 15.181 9.6123 14.9805C9.73991 14.8802 9.86296 14.8073 9.98145 14.7617C10.1045 14.7116 10.2367 14.6865 10.3779 14.6865C10.5146 14.6911 10.6354 14.6956 10.7402 14.7002C10.8451 14.7002 10.9316 14.7002 11 14.7002C11.9206 14.7002 12.7819 14.568 13.584 14.3037C14.3861 14.0394 15.0879 13.6748 15.6895 13.21C16.2956 12.7451 16.7695 12.2051 17.1113 11.5898C17.4531 10.9746 17.624 10.3184 17.624 9.62109C17.624 9.36589 17.5921 9.11296 17.5283 8.8623C17.7152 8.7985 17.8952 8.71647 18.0684 8.61621C18.2415 8.51139 18.4033 8.3929 18.5537 8.26074C18.6859 8.68913 18.752 9.14258 18.752 9.62109C18.752 10.3366 18.6152 11.0133 18.3418 11.6514C18.0729 12.2848 17.6878 12.8613 17.1865 13.3809C16.6898 13.9004 16.0951 14.347 15.4023 14.7207C14.7142 15.0898 13.9486 15.3701 13.1055 15.5615C12.2624 15.7529 11.3646 15.835 10.4121 15.8076C9.95182 16.1403 9.45508 16.4525 8.92188 16.7441C8.38867 17.0358 7.88053 17.2728 7.39746 17.4551C6.91439 17.6374 6.52018 17.7285 6.21484 17.7285ZM16.3867 8.15137C15.9492 8.15137 15.5505 8.04427 15.1904 7.83008C14.835 7.61589 14.5501 7.32878 14.3359 6.96875C14.1217 6.60872 14.0146 6.21224 14.0146 5.7793C14.0146 5.34635 14.1217 4.94987 14.3359 4.58984C14.5501 4.22982 14.835 3.94271 15.1904 3.72852C15.5505 3.51432 15.9492 3.40723 16.3867 3.40723C16.8151 3.40723 17.2093 3.51432 17.5693 3.72852C17.9294 3.94271 18.2165 4.22982 18.4307 4.58984C18.6449 4.94987 18.752 5.34635 18.752 5.7793C18.752 6.21224 18.6449 6.60872 18.4307 6.96875C18.2165 7.32878 17.9294 7.61589 17.5693 7.83008C17.2093 8.04427 16.8151 8.15137 16.3867 8.15137Z" fill="#ECECEC" fill-opacity="0.75"/>
</svg>
