<svg width="22" height="22" viewBox="0 0 22 22" fill="none" xmlns="http://www.w3.org/2000/svg">
<path d="M9.99512 16.833C9.8265 16.833 9.66927 16.7965 9.52344 16.7236C9.3776 16.6553 9.22266 16.5436 9.05859 16.3887L3.66504 11.2959C3.53288 11.1729 3.44173 11.0475 3.3916 10.9199C3.34147 10.7923 3.31641 10.6738 3.31641 10.5645C3.31641 10.4505 3.34147 10.3298 3.3916 10.2021C3.44173 10.0745 3.53288 9.94922 3.66504 9.82617L9.05859 4.78125C9.24089 4.60807 9.39811 4.48503 9.53027 4.41211C9.66243 4.33464 9.81283 4.2959 9.98145 4.2959C10.223 4.2959 10.4189 4.37793 10.5693 4.54199C10.7197 4.70605 10.7949 4.90202 10.7949 5.12988V7.71387H10.9932C12.2236 7.71387 13.2832 7.90299 14.1719 8.28125C15.0651 8.65951 15.7965 9.20638 16.3662 9.92188C16.9404 10.6374 17.3643 11.501 17.6377 12.5127C17.9157 13.5199 18.0547 14.6546 18.0547 15.917C18.0547 16.2132 17.9818 16.4388 17.8359 16.5938C17.6947 16.7533 17.5329 16.833 17.3506 16.833C17.2048 16.833 17.0566 16.8034 16.9062 16.7441C16.7604 16.6849 16.6283 16.5459 16.5098 16.3271C16.1133 15.5798 15.6553 14.9964 15.1357 14.5771C14.6162 14.1533 14.0169 13.8548 13.3379 13.6816C12.6589 13.5085 11.8773 13.4219 10.9932 13.4219H10.7949V16.0332C10.7949 16.2656 10.7197 16.457 10.5693 16.6074C10.4189 16.7578 10.2275 16.833 9.99512 16.833ZM9.60547 15.3633C9.66471 15.3633 9.69434 15.3291 9.69434 15.2607V12.6152C9.69434 12.4648 9.77181 12.3896 9.92676 12.3896H10.8428C11.9274 12.3896 12.8776 12.5081 13.6934 12.7451C14.5137 12.9775 15.1973 13.3079 15.7441 13.7363C16.291 14.1647 16.6989 14.6637 16.9678 15.2334C16.9769 15.2562 16.986 15.2744 16.9951 15.2881C17.0042 15.2972 17.0156 15.3018 17.0293 15.3018C17.0658 15.3018 17.084 15.2767 17.084 15.2266C17.0566 14.584 16.9701 13.9505 16.8242 13.3262C16.6829 12.6973 16.4665 12.1071 16.1748 11.5557C15.8831 11.0042 15.5003 10.5189 15.0264 10.0996C14.5524 9.67578 13.9714 9.34538 13.2832 9.1084C12.5951 8.86686 11.7816 8.74609 10.8428 8.74609H9.92676C9.77181 8.74609 9.69434 8.6709 9.69434 8.52051V5.80664C9.69434 5.74284 9.66243 5.71094 9.59863 5.71094C9.57585 5.71094 9.55534 5.71777 9.53711 5.73145C9.51888 5.74056 9.50065 5.75195 9.48242 5.76562L4.61523 10.4346C4.5651 10.4801 4.54004 10.5234 4.54004 10.5645C4.54004 10.5827 4.5446 10.6032 4.55371 10.626C4.56738 10.6442 4.58789 10.667 4.61523 10.6943L9.48926 15.3018C9.52572 15.3428 9.56445 15.3633 9.60547 15.3633Z" fill="#ECECEC" fill-opacity="0.75"/>
</svg>
