<svg width="22" height="22" viewBox="0 0 22 22" fill="none" xmlns="http://www.w3.org/2000/svg">
<path d="M7.08984 16.8467C6.37891 16.8467 5.84342 16.6689 5.4834 16.3135C5.12337 15.9626 4.94336 15.4339 4.94336 14.7275V6.85254C4.94336 6.14616 5.12337 5.61751 5.4834 5.2666C5.84342 4.91113 6.37891 4.7334 7.08984 4.7334H14.835L13.7344 5.83398H7.11035C6.76855 5.83398 6.50423 5.92513 6.31738 6.10742C6.13509 6.28971 6.04395 6.55859 6.04395 6.91406V14.6729C6.04395 15.0283 6.13509 15.2972 6.31738 15.4795C6.50423 15.6572 6.76855 15.7461 7.11035 15.7461H15.1016C15.3385 15.7461 15.5391 15.6572 15.7031 15.4795C15.8717 15.2972 15.9561 15.0283 15.9561 14.6729V8.11035L17.0566 7.00977V14.7275C17.0566 15.4339 16.8857 15.9626 16.5439 16.3135C16.2067 16.6689 15.7305 16.8467 15.1152 16.8467H7.08984ZM9.57812 12.417C9.51432 12.4443 9.45508 12.4307 9.40039 12.376C9.35026 12.3167 9.33887 12.2575 9.36621 12.1982L9.98145 10.9131L16.3594 4.53516L17.2959 5.45801L10.9111 11.8359L9.57812 12.417ZM17.8018 4.95898L16.8652 4.01562L17.3643 3.52344C17.4782 3.41406 17.6081 3.35482 17.7539 3.3457C17.9043 3.33659 18.0319 3.38444 18.1367 3.48926L18.2939 3.65332C18.4124 3.76725 18.4694 3.89941 18.4648 4.0498C18.4648 4.19564 18.4079 4.33008 18.2939 4.45312L17.8018 4.95898Z" fill="#ECECEC" fill-opacity="0.75"/>
</svg>
