<svg width="22" height="22" viewBox="0 0 22 22" fill="none" xmlns="http://www.w3.org/2000/svg">
<path d="M11.793 16.833C11.6243 16.833 11.4671 16.7965 11.3213 16.7236C11.1755 16.6553 11.0205 16.5436 10.8564 16.3887L5.46289 11.2959C5.33073 11.1729 5.23958 11.0475 5.18945 10.9199C5.13932 10.7923 5.11426 10.6738 5.11426 10.5645C5.11426 10.4505 5.13932 10.3298 5.18945 10.2021C5.23958 10.0745 5.33073 9.94922 5.46289 9.82617L10.8564 4.78125C11.0387 4.60807 11.196 4.48503 11.3281 4.41211C11.4603 4.33464 11.6107 4.2959 11.7793 4.2959C12.0208 4.2959 12.2168 4.37793 12.3672 4.54199C12.5176 4.70605 12.5928 4.90202 12.5928 5.12988V7.71387H12.791C14.0215 7.71387 15.0811 7.90299 15.9697 8.28125C16.863 8.65951 17.5944 9.20638 18.1641 9.92188C18.7383 10.6374 19.1621 11.501 19.4355 12.5127C19.7135 13.5199 19.8525 14.6546 19.8525 15.917C19.8525 16.2132 19.7796 16.4388 19.6338 16.5938C19.4925 16.7533 19.3307 16.833 19.1484 16.833C19.0026 16.833 18.8545 16.8034 18.7041 16.7441C18.5583 16.6849 18.4261 16.5459 18.3076 16.3271C17.9111 15.5798 17.4531 14.9964 16.9336 14.5771C16.4141 14.1533 15.8148 13.8548 15.1357 13.6816C14.4567 13.5085 13.6751 13.4219 12.791 13.4219H12.5928V16.0332C12.5928 16.2656 12.5176 16.457 12.3672 16.6074C12.2168 16.7578 12.0254 16.833 11.793 16.833ZM11.4033 15.3633C11.4626 15.3633 11.4922 15.3291 11.4922 15.2607V12.6152C11.4922 12.4648 11.5697 12.3896 11.7246 12.3896H12.6406C13.7207 12.3896 14.6709 12.5081 15.4912 12.7451C16.3115 12.9775 16.9951 13.3079 17.542 13.7363C18.0889 14.1647 18.4967 14.6637 18.7656 15.2334C18.7747 15.2562 18.7839 15.2744 18.793 15.2881C18.8021 15.2972 18.8135 15.3018 18.8271 15.3018C18.8636 15.3018 18.8818 15.2767 18.8818 15.2266C18.8545 14.584 18.7679 13.9505 18.6221 13.3262C18.4808 12.6973 18.2643 12.1071 17.9727 11.5557C17.681 11.0042 17.2982 10.5189 16.8242 10.0996C16.3503 9.67578 15.7692 9.34538 15.0811 9.1084C14.3929 8.86686 13.5794 8.74609 12.6406 8.74609H11.7246C11.5697 8.74609 11.4922 8.6709 11.4922 8.52051V5.80664C11.4922 5.74284 11.4603 5.71094 11.3965 5.71094C11.3737 5.71094 11.3532 5.71777 11.335 5.73145C11.3167 5.74056 11.2985 5.75195 11.2803 5.76562L6.41309 10.4346C6.36296 10.4801 6.33789 10.5234 6.33789 10.5645C6.33789 10.5827 6.34245 10.6032 6.35156 10.626C6.36523 10.6442 6.38574 10.667 6.41309 10.6943L11.2803 15.3018C11.3213 15.3428 11.3623 15.3633 11.4033 15.3633ZM8.38867 16.833C8.22005 16.833 8.06055 16.7965 7.91016 16.7236C7.76432 16.6553 7.61165 16.5436 7.45215 16.3887L2.05176 11.2959C1.92415 11.1729 1.83529 11.0475 1.78516 10.9199C1.73503 10.7923 1.70996 10.6738 1.70996 10.5645C1.70996 10.4505 1.73275 10.3298 1.77832 10.2021C1.82845 10.0745 1.9196 9.94922 2.05176 9.82617L7.45215 4.78125C7.63444 4.60807 7.79167 4.48503 7.92383 4.41211C8.05599 4.33464 8.20638 4.2959 8.375 4.2959C8.61198 4.2959 8.80566 4.37793 8.95605 4.54199C9.111 4.70605 9.18848 4.90202 9.18848 5.12988V6.8457L8.08789 7.71387V5.80664C8.08789 5.74284 8.05599 5.71094 7.99219 5.71094C7.9694 5.71094 7.94889 5.71777 7.93066 5.73145C7.91243 5.74056 7.89421 5.75195 7.87598 5.76562L3.00879 10.4346C2.95866 10.4801 2.93359 10.5234 2.93359 10.5645C2.93359 10.5827 2.93815 10.6032 2.94727 10.626C2.96094 10.6442 2.98145 10.667 3.00879 10.6943L7.87598 15.3018C7.91699 15.3428 7.95573 15.3633 7.99219 15.3633C8.05599 15.3633 8.08789 15.3291 8.08789 15.2607V13.4014L9.18848 14.2764V16.0332C9.18848 16.2656 9.11328 16.457 8.96289 16.6074C8.8125 16.7578 8.62109 16.833 8.38867 16.833Z" fill="#ECECEC" fill-opacity="0.75"/>
</svg>
