<svg width="22" height="22" viewBox="0 0 22 22" fill="none" xmlns="http://www.w3.org/2000/svg">
<path d="M11 17.626C10.5169 17.626 10.0885 17.5098 9.71484 17.2773C9.34115 17.0495 9.04264 16.7487 8.81934 16.375C8.60059 16.0013 8.4821 15.5934 8.46387 15.1514H5.58594C5.25781 15.1514 5.0026 15.0762 4.82031 14.9258C4.63802 14.7754 4.54688 14.5749 4.54688 14.3242C4.54688 14.0964 4.61296 13.8753 4.74512 13.6611C4.87728 13.4469 5.04134 13.2373 5.2373 13.0322C5.43783 12.8271 5.63835 12.6221 5.83887 12.417C5.98926 12.262 6.10547 12.0592 6.1875 11.8086C6.26953 11.5579 6.33105 11.2913 6.37207 11.0088C6.41309 10.7262 6.44271 10.4528 6.46094 10.1885C6.46549 9.78288 6.486 9.40007 6.52246 9.04004C6.56348 8.68001 6.62044 8.34505 6.69336 8.03516L7.65039 8.99219C7.62305 9.18359 7.60026 9.38639 7.58203 9.60059C7.5638 9.81478 7.55241 10.0404 7.54785 10.2773C7.53418 10.61 7.50911 10.9154 7.47266 11.1934C7.4362 11.4714 7.38607 11.7243 7.32227 11.9521C7.25846 12.18 7.18099 12.3851 7.08984 12.5674C6.9987 12.7451 6.8916 12.9023 6.76855 13.0391C6.65007 13.1712 6.5293 13.3011 6.40625 13.4287C6.2832 13.5563 6.17383 13.6748 6.07812 13.7842C5.98698 13.889 5.9209 13.9733 5.87988 14.0371V14.1191H12.7773L13.96 15.3018H13.5156C13.4746 15.7256 13.3424 16.113 13.1191 16.4639C12.8958 16.8148 12.6019 17.0951 12.2373 17.3047C11.8727 17.5189 11.4603 17.626 11 17.626ZM11 16.6621C11.4102 16.6621 11.7497 16.5254 12.0186 16.252C12.292 15.9831 12.4401 15.6162 12.4629 15.1514H9.53027C9.55762 15.6162 9.70573 15.9831 9.97461 16.252C10.2435 16.5254 10.5853 16.6621 11 16.6621ZM8.06738 5.62207C8.2041 5.5127 8.35221 5.41471 8.51172 5.32812C8.67122 5.23698 8.84212 5.16178 9.02441 5.10254C9.13835 4.65592 9.36849 4.27767 9.71484 3.96777C10.0658 3.65788 10.4941 3.50293 11 3.50293C11.5013 3.50293 11.9251 3.65788 12.2715 3.96777C12.6224 4.27767 12.8571 4.65592 12.9756 5.10254C13.887 5.43066 14.541 6.03678 14.9375 6.9209C15.334 7.80501 15.5413 8.97396 15.5596 10.4277C15.5687 10.6693 15.5892 10.8949 15.6211 11.1045C15.653 11.3141 15.6986 11.5124 15.7578 11.6992C15.8216 11.8815 15.9014 12.057 15.9971 12.2256C16.0973 12.3896 16.2181 12.5492 16.3594 12.7041C16.6055 12.9548 16.8424 13.21 17.0703 13.4697C17.3027 13.7249 17.4189 13.9893 17.4189 14.2627C17.4189 14.4587 17.3597 14.625 17.2412 14.7617L14.8145 12.2598C14.7324 12.1048 14.6686 11.943 14.623 11.7744C14.582 11.6012 14.5501 11.4076 14.5273 11.1934C14.5046 10.9792 14.4863 10.7331 14.4727 10.4551C14.459 9.41602 14.3564 8.59342 14.165 7.9873C13.9736 7.37663 13.7184 6.92318 13.3994 6.62695C13.085 6.33073 12.7295 6.12793 12.333 6.01855C12.2464 6.00033 12.1803 5.96842 12.1348 5.92285C12.0892 5.87272 12.0641 5.80436 12.0596 5.71777C12.0459 5.3623 11.9434 5.07292 11.752 4.84961C11.5651 4.62174 11.3145 4.50781 11 4.50781C10.681 4.50781 10.4258 4.62174 10.2344 4.84961C10.0475 5.07292 9.94727 5.3623 9.93359 5.71777C9.93359 5.80436 9.90853 5.87272 9.8584 5.92285C9.81283 5.96842 9.74902 6.00033 9.66699 6.01855C9.5166 6.05957 9.37305 6.11198 9.23633 6.17578C9.10417 6.23958 8.97656 6.31706 8.85352 6.4082L8.06738 5.62207ZM4.68359 4.89062C4.58333 4.79036 4.5332 4.66732 4.5332 4.52148C4.5332 4.37109 4.58333 4.24577 4.68359 4.14551C4.78841 4.04525 4.91374 3.99512 5.05957 3.99512C5.20996 3.99512 5.33529 4.04525 5.43555 4.14551L17.7129 16.416C17.8132 16.5163 17.8633 16.6393 17.8633 16.7852C17.8633 16.931 17.8132 17.0563 17.7129 17.1611C17.6126 17.2614 17.4873 17.3115 17.3369 17.3115C17.1911 17.3115 17.068 17.2614 16.9678 17.1611L4.68359 4.89062Z" fill="#ECECEC" fill-opacity="0.75"/>
</svg>
