<svg width="22" height="22" viewBox="0 0 22 22" fill="none" xmlns="http://www.w3.org/2000/svg">
<path d="M11 18.7471C10.9544 18.7471 10.8975 18.6969 10.8291 18.5967C10.7653 18.4964 10.6992 18.3574 10.6309 18.1797C10.5625 18.0065 10.5055 17.8037 10.46 17.5713C10.4144 17.3389 10.3916 17.0928 10.3916 16.833V13.0801H11.6016V16.833C11.6016 17.0928 11.5788 17.3389 11.5332 17.5713C11.4876 17.8037 11.4307 18.0065 11.3623 18.1797C11.2939 18.3574 11.2256 18.4964 11.1572 18.5967C11.0934 18.6969 11.041 18.7471 11 18.7471ZM6.69336 13.6406C6.38802 13.6406 6.14421 13.554 5.96191 13.3809C5.77962 13.2031 5.68848 12.9684 5.68848 12.6768C5.68848 12.1755 5.82064 11.6855 6.08496 11.207C6.34928 10.724 6.71842 10.291 7.19238 9.9082C7.6709 9.52083 8.23372 9.21322 8.88086 8.98535C9.52799 8.75293 10.2344 8.63672 11 8.63672C11.7656 8.63672 12.4697 8.75293 13.1123 8.98535C13.7594 9.21322 14.3223 9.52083 14.8008 9.9082C15.2793 10.291 15.6484 10.724 15.9082 11.207C16.1725 11.6855 16.3047 12.1755 16.3047 12.6768C16.3047 12.9684 16.2135 13.2031 16.0312 13.3809C15.8535 13.554 15.6097 13.6406 15.2998 13.6406H6.69336ZM6.9668 12.6084H15.0264C15.1859 12.6084 15.252 12.5173 15.2246 12.335C15.1882 12.0296 15.0651 11.7197 14.8555 11.4053C14.6458 11.0863 14.3587 10.7946 13.9941 10.5303C13.6296 10.2614 13.1943 10.0449 12.6885 9.88086C12.1872 9.7168 11.6243 9.63477 11 9.63477C10.3711 9.63477 9.80371 9.7168 9.29785 9.88086C8.79655 10.0449 8.36361 10.2614 7.99902 10.5303C7.63444 10.7946 7.34733 11.0863 7.1377 11.4053C6.92806 11.7197 6.80501 12.0296 6.76855 12.335C6.74121 12.5173 6.80729 12.6084 6.9668 12.6084ZM6.55664 3.53711C6.55664 3.32747 6.62956 3.1543 6.77539 3.01758C6.92122 2.88086 7.11491 2.8125 7.35645 2.8125H14.6436C14.8805 2.8125 15.0719 2.88086 15.2178 3.01758C15.3682 3.1543 15.4434 3.32747 15.4434 3.53711C15.4434 3.75586 15.3545 3.97689 15.1768 4.2002C15.0628 4.35514 14.901 4.52604 14.6914 4.71289C14.4818 4.89974 14.2425 5.09342 13.9736 5.29395C13.7048 5.48991 13.4268 5.68359 13.1396 5.875L13.3926 9.48438H12.2988L12.0527 5.36914C12.0436 5.28711 12.0664 5.23242 12.1211 5.20508C12.3763 5.07292 12.6156 4.93848 12.8389 4.80176C13.0622 4.66504 13.2581 4.53743 13.4268 4.41895C13.5954 4.2959 13.7275 4.19108 13.8232 4.10449C13.9235 4.01335 13.9805 3.95182 13.9941 3.91992C14.0215 3.87435 14.0238 3.84017 14.001 3.81738C13.9827 3.79004 13.9554 3.77637 13.9189 3.77637H8.07422C8.03776 3.77637 8.00814 3.79004 7.98535 3.81738C7.96712 3.84017 7.97168 3.87435 7.99902 3.91992C8.0127 3.95182 8.06966 4.01335 8.16992 4.10449C8.27018 4.19108 8.40462 4.2959 8.57324 4.41895C8.74186 4.53743 8.93555 4.66504 9.1543 4.80176C9.3776 4.93848 9.61686 5.07292 9.87207 5.20508C9.92676 5.23242 9.95182 5.28711 9.94727 5.36914L9.69434 9.48438H8.60059L8.85352 5.875C8.56641 5.68359 8.28841 5.48991 8.01953 5.29395C7.75521 5.09342 7.51595 4.89974 7.30176 4.71289C7.09212 4.52604 6.93034 4.35514 6.81641 4.2002C6.64323 3.97689 6.55664 3.75586 6.55664 3.53711Z" fill="#ECECEC" fill-opacity="0.75"/>
</svg>
