<svg width="22" height="22" viewBox="0 0 22 22" fill="none" xmlns="http://www.w3.org/2000/svg">
<path d="M4.85449 8.2334C4.48991 8.2334 4.30762 8.04655 4.30762 7.67285V5.99805C4.30762 5.29622 4.48535 4.76986 4.84082 4.41895C5.20085 4.06348 5.73861 3.88574 6.4541 3.88574H8.12207C8.49577 3.88574 8.68262 4.06803 8.68262 4.43262C8.68262 4.80176 8.49577 4.98633 8.12207 4.98633H6.46777C6.12598 4.98633 5.86393 5.07747 5.68164 5.25977C5.49935 5.4375 5.4082 5.7041 5.4082 6.05957V7.67285C5.4082 8.04655 5.22363 8.2334 4.85449 8.2334ZM17.1387 8.2334C16.7741 8.2334 16.5918 8.04655 16.5918 7.67285V6.05957C16.5918 5.7041 16.4984 5.4375 16.3115 5.25977C16.1247 5.07747 15.8626 4.98633 15.5254 4.98633H13.8711C13.502 4.98633 13.3174 4.80176 13.3174 4.43262C13.3174 4.06803 13.502 3.88574 13.8711 3.88574H15.5459C16.2614 3.88574 16.7969 4.06348 17.1523 4.41895C17.5124 4.76986 17.6924 5.29622 17.6924 5.99805V7.67285C17.6924 8.04655 17.5078 8.2334 17.1387 8.2334ZM6.4541 17.2637C5.73861 17.2637 5.20085 17.0859 4.84082 16.7305C4.48535 16.3796 4.30762 15.8509 4.30762 15.1445V13.4766C4.30762 13.1029 4.48991 12.916 4.85449 12.916C5.22363 12.916 5.4082 13.1029 5.4082 13.4766V15.0898C5.4082 15.4453 5.49935 15.7119 5.68164 15.8896C5.86393 16.0719 6.12598 16.1631 6.46777 16.1631H8.12207C8.49577 16.1631 8.68262 16.3477 8.68262 16.7168C8.68262 17.0814 8.49577 17.2637 8.12207 17.2637H6.4541ZM13.8711 17.2637C13.502 17.2637 13.3174 17.0814 13.3174 16.7168C13.3174 16.3477 13.502 16.1631 13.8711 16.1631H15.5254C15.8626 16.1631 16.1247 16.0719 16.3115 15.8896C16.4984 15.7119 16.5918 15.4453 16.5918 15.0898V13.4766C16.5918 13.1029 16.7741 12.916 17.1387 12.916C17.5078 12.916 17.6924 13.1029 17.6924 13.4766V15.1445C17.6924 15.8509 17.5124 16.3796 17.1523 16.7305C16.7969 17.0859 16.2614 17.2637 15.5459 17.2637H13.8711Z" fill="#ECECEC" fill-opacity="0.75"/>
</svg>
