<svg width="22" height="22" viewBox="0 0 22 22" fill="none" xmlns="http://www.w3.org/2000/svg">
<path d="M8.97656 15.3701C8.84896 15.3701 8.74642 15.3337 8.66895 15.2607C8.59147 15.1878 8.55046 15.0898 8.5459 14.9668L8.34082 7.65918C8.33626 7.54069 8.37272 7.44499 8.4502 7.37207C8.53223 7.2946 8.63704 7.25586 8.76465 7.25586C8.8877 7.25586 8.98796 7.29232 9.06543 7.36523C9.14746 7.43815 9.18848 7.53385 9.18848 7.65234L9.40039 14.9668C9.40039 15.0853 9.36165 15.1833 9.28418 15.2607C9.20671 15.3337 9.10417 15.3701 8.97656 15.3701ZM11 15.3701C10.8724 15.3701 10.7676 15.3337 10.6855 15.2607C10.6035 15.1833 10.5625 15.0853 10.5625 14.9668V7.65918C10.5625 7.54069 10.6035 7.44499 10.6855 7.37207C10.7676 7.2946 10.8724 7.25586 11 7.25586C11.1322 7.25586 11.2393 7.2946 11.3213 7.37207C11.4033 7.44499 11.4443 7.54069 11.4443 7.65918V14.9668C11.4443 15.0853 11.4033 15.1833 11.3213 15.2607C11.2393 15.3337 11.1322 15.3701 11 15.3701ZM13.0303 15.3701C12.8981 15.3701 12.7933 15.3337 12.7158 15.2607C12.6383 15.1833 12.6019 15.0853 12.6064 14.9668L12.8115 7.65918C12.8161 7.53613 12.8571 7.43815 12.9346 7.36523C13.012 7.29232 13.1123 7.25586 13.2354 7.25586C13.3675 7.25586 13.4723 7.2946 13.5498 7.37207C13.6273 7.44499 13.6637 7.54069 13.6592 7.65918L13.4541 14.9668C13.4495 15.0898 13.4085 15.1878 13.3311 15.2607C13.2536 15.3337 13.1533 15.3701 13.0303 15.3701ZM7.99902 5.47168V3.94043C7.99902 3.44824 8.14941 3.06087 8.4502 2.77832C8.75553 2.49121 9.17025 2.34766 9.69434 2.34766H12.292C12.8161 2.34766 13.2285 2.49121 13.5293 2.77832C13.8346 3.06087 13.9873 3.44824 13.9873 3.94043V5.47168H12.9004V4.00879C12.9004 3.81738 12.8366 3.66243 12.709 3.54395C12.5859 3.42546 12.4219 3.36621 12.2168 3.36621H9.76953C9.56445 3.36621 9.39811 3.42546 9.27051 3.54395C9.14746 3.66243 9.08594 3.81738 9.08594 4.00879V5.47168H7.99902ZM4.89551 6.01855C4.75879 6.01855 4.63802 5.96842 4.5332 5.86816C4.43294 5.76335 4.38281 5.6403 4.38281 5.49902C4.38281 5.3623 4.43294 5.24382 4.5332 5.14355C4.63802 5.03874 4.75879 4.98633 4.89551 4.98633H17.1113C17.248 4.98633 17.3665 5.03646 17.4668 5.13672C17.5671 5.23698 17.6172 5.35775 17.6172 5.49902C17.6172 5.6403 17.5671 5.76335 17.4668 5.86816C17.3711 5.96842 17.2526 6.01855 17.1113 6.01855H4.89551ZM7.86914 17.5713C7.37695 17.5713 6.97819 17.4255 6.67285 17.1338C6.37207 16.8467 6.21029 16.457 6.1875 15.9648L5.70215 5.88867H6.77539L7.26074 15.8418C7.26986 16.0423 7.34049 16.2087 7.47266 16.3408C7.60482 16.473 7.76888 16.5391 7.96484 16.5391H14.0283C14.2288 16.5391 14.3952 16.473 14.5273 16.3408C14.6595 16.2132 14.7301 16.0469 14.7393 15.8418L15.1973 5.88867H16.2979L15.8193 15.958C15.7965 16.4502 15.6325 16.8421 15.3271 17.1338C15.0218 17.4255 14.6253 17.5713 14.1377 17.5713H7.86914Z" fill="#FF4141"/>
</svg>
