<svg width="16" height="13" viewBox="0 0 16 13" fill="none" xmlns="http://www.w3.org/2000/svg">
<path d="M12.2 12.5C12.2 11.0855 11.61 9.72896 10.5598 8.72876C9.50959 7.72857 8.08521 7.16667 6.6 7.16667M6.6 7.16667C5.11479 7.16667 3.69041 7.72857 2.6402 8.72876C1.59 9.72896 1 11.0855 1 12.5M6.6 7.16667C8.533 7.16667 10.1 5.67428 10.1 3.83333C10.1 1.99238 8.533 0.5 6.6 0.5C4.667 0.5 3.1 1.99238 3.1 3.83333C3.1 5.67428 4.667 7.16667 6.6 7.16667ZM15 11.8333C15 9.58667 13.6 7.5 12.2 6.5C12.6602 6.17118 13.0282 5.73939 13.2714 5.24285C13.5146 4.7463 13.6256 4.20031 13.5944 3.6532C13.5633 3.10609 13.391 2.57472 13.0928 2.10613C12.7947 1.63754 12.3798 1.24617 11.885 0.966667" stroke="#ECECEC" stroke-opacity="0.5" stroke-linecap="round" stroke-linejoin="round"/>
</svg>
