<svg width="14" height="13" viewBox="0 0 14 13" fill="none" xmlns="http://www.w3.org/2000/svg">
<path d="M7.17949 3.26926H1.4359C1.05507 3.26926 0.689848 3.42054 0.420565 3.68982C0.151282 3.9591 0 4.32433 0 4.70515V7.57695C0 7.95777 0.151282 8.323 0.420565 8.59228C0.689848 8.86156 1.05507 9.01285 1.4359 9.01285H2.15385V11.8846C2.15385 12.0751 2.22949 12.2577 2.36413 12.3923C2.49877 12.5269 2.68138 12.6026 2.87179 12.6026H4.30769C4.4981 12.6026 4.68072 12.5269 4.81536 12.3923C4.95 12.2577 5.02564 12.0751 5.02564 11.8846V9.01285H7.17949L10.7692 11.8846V0.397461L7.17949 3.26926ZM14 6.14105C14 7.36874 13.3108 8.48156 12.2051 9.01285V3.26926C13.3036 3.80772 14 4.92054 14 6.14105Z" fill="#ECECEC" fill-opacity="0.5"/>
</svg>
