<svg width="302" height="302" viewBox="0 0 302 302" fill="none" xmlns="http://www.w3.org/2000/svg">
<path d="M168.742 151L248.017 71.8512C250.387 69.4817 251.718 66.268 251.718 62.917C251.718 59.5661 250.387 56.3524 248.017 53.9829C245.648 51.6134 242.434 50.2822 239.083 50.2822C235.732 50.2822 232.519 51.6134 230.149 53.9829L151 133.258L71.8507 53.9829C69.4812 51.6134 66.2675 50.2822 62.9166 50.2822C59.5656 50.2822 56.3519 51.6134 53.9824 53.9829C51.6129 56.3524 50.2817 59.5661 50.2817 62.917C50.2817 66.268 51.6129 69.4817 53.9824 71.8512L133.257 151L53.9824 230.15C52.803 231.319 51.8668 232.711 51.228 234.244C50.5892 235.778 50.2603 237.423 50.2603 239.084C50.2603 240.745 50.5892 242.39 51.228 243.923C51.8668 245.456 52.803 246.848 53.9824 248.018C55.1522 249.197 56.5439 250.133 58.0773 250.772C59.6107 251.411 61.2554 251.74 62.9166 251.74C64.5777 251.74 66.2224 251.411 67.7558 250.772C69.2892 250.133 70.6809 249.197 71.8507 248.018L151 168.743L230.149 248.018C231.319 249.197 232.711 250.133 234.244 250.772C235.777 251.411 237.422 251.74 239.083 251.74C240.744 251.74 242.389 251.411 243.922 250.772C245.456 250.133 246.848 249.197 248.017 248.018C249.197 246.848 250.133 245.456 250.772 243.923C251.411 242.39 251.74 240.745 251.74 239.084C251.74 237.423 251.411 235.778 250.772 234.244C250.133 232.711 249.197 231.319 248.017 230.15L168.742 151Z" fill="#ECECEC" fill-opacity="0.35"/>
</svg>
