<svg width="22" height="22" viewBox="0 0 22 22" fill="none" xmlns="http://www.w3.org/2000/svg">
<path d="M7.32227 5.74512V4.10449C7.32227 3.39355 7.49772 2.85807 7.84863 2.49805C8.2041 2.13802 8.73503 1.95801 9.44141 1.95801H12.0596C12.4287 1.95801 12.7591 2.01042 13.0508 2.11523C13.3424 2.21549 13.609 2.39095 13.8506 2.6416L17.3027 6.14844C17.5579 6.41276 17.7357 6.69076 17.8359 6.98242C17.9362 7.27409 17.9863 7.62956 17.9863 8.04883V13.5996C17.9863 14.3105 17.8086 14.846 17.4531 15.2061C17.1022 15.5661 16.5736 15.7461 15.8672 15.7461H14.459V14.6455H15.8057C16.1611 14.6455 16.43 14.5544 16.6123 14.3721C16.7946 14.1852 16.8857 13.9209 16.8857 13.5791V7.73438H13.6865C13.2946 7.73438 13.0007 7.63867 12.8047 7.44727C12.6133 7.25586 12.5176 6.96191 12.5176 6.56543V3.05859H9.49609C9.14062 3.05859 8.87174 3.15202 8.68945 3.33887C8.51172 3.52116 8.42285 3.7832 8.42285 4.125V5.74512H7.32227ZM13.5088 6.40137C13.5088 6.52441 13.5339 6.61328 13.584 6.66797C13.6387 6.7181 13.7253 6.74316 13.8438 6.74316H16.5986L13.5088 3.59863V6.40137ZM4.00684 17.0107V7.51562C4.00684 6.80469 4.18229 6.26921 4.5332 5.90918C4.88867 5.54915 5.4196 5.36914 6.12598 5.36914H8.53906C8.92188 5.36914 9.23861 5.41016 9.48926 5.49219C9.73991 5.57422 9.99512 5.74967 10.2549 6.01855L14.0215 9.85352C14.2038 10.0404 14.3405 10.2181 14.4316 10.3867C14.5273 10.5508 14.5911 10.7331 14.623 10.9336C14.6549 11.1341 14.6709 11.3802 14.6709 11.6719V17.0107C14.6709 17.7217 14.4932 18.2572 14.1377 18.6172C13.7868 18.9772 13.2581 19.1572 12.5518 19.1572H6.12598C5.4196 19.1572 4.88867 18.9772 4.5332 18.6172C4.18229 18.2617 4.00684 17.7262 4.00684 17.0107ZM5.10742 16.9902C5.10742 17.332 5.19629 17.5941 5.37402 17.7764C5.55632 17.9632 5.82292 18.0566 6.17383 18.0566H12.4971C12.848 18.0566 13.1146 17.9632 13.2969 17.7764C13.4792 17.5941 13.5703 17.332 13.5703 16.9902V11.7266H9.70801C9.28418 11.7266 8.96289 11.6195 8.74414 11.4053C8.52995 11.1911 8.42285 10.8675 8.42285 10.4346V6.46973H6.18066C5.8252 6.46973 5.55632 6.56315 5.37402 6.75C5.19629 6.93229 5.10742 7.19206 5.10742 7.5293V16.9902ZM9.83789 10.6943H13.3584L9.45508 6.72266V10.3115C9.45508 10.4482 9.4847 10.5462 9.54395 10.6055C9.60319 10.6647 9.70117 10.6943 9.83789 10.6943Z" fill="#ECECEC" fill-opacity="0.75"/>
</svg>
