<svg width="16" height="13" viewBox="0 0 16 13" fill="none" xmlns="http://www.w3.org/2000/svg">
<path d="M0 12.318V10.2817C0 9.86954 0.106182 9.49087 0.318545 9.14566C0.530909 8.80045 0.812606 8.53669 1.16364 8.35439C1.91515 7.97863 2.67879 7.69693 3.45455 7.50929C4.2303 7.32166 5.01818 7.2276 5.81818 7.22711C6.61818 7.22663 7.40606 7.32069 8.18182 7.50929C8.95758 7.6979 9.72121 7.9796 10.4727 8.35439C10.8242 8.5362 11.1062 8.79996 11.3185 9.14566C11.5309 9.49136 11.6368 9.87002 11.6364 10.2817V12.318H0ZM13.0909 12.318V10.1362C13.0909 9.60287 12.9425 9.09063 12.6458 8.59948C12.3491 8.10833 11.9278 7.68723 11.3818 7.3362C12 7.40893 12.5818 7.5333 13.1273 7.7093C13.6727 7.8853 14.1818 8.10033 14.6545 8.35439C15.0909 8.59681 15.4242 8.86639 15.6545 9.16311C15.8848 9.45984 16 9.7842 16 10.1362V12.318H13.0909ZM5.81818 6.49984C5.01818 6.49984 4.33333 6.21499 3.76364 5.6453C3.19394 5.0756 2.90909 4.39075 2.90909 3.59075C2.90909 2.79075 3.19394 2.1059 3.76364 1.5362C4.33333 0.966508 5.01818 0.681659 5.81818 0.681659C6.61818 0.681659 7.30303 0.966508 7.87273 1.5362C8.44242 2.1059 8.72727 2.79075 8.72727 3.59075C8.72727 4.39075 8.44242 5.0756 7.87273 5.6453C7.30303 6.21499 6.61818 6.49984 5.81818 6.49984ZM13.0909 3.59075C13.0909 4.39075 12.8061 5.0756 12.2364 5.6453C11.6667 6.21499 10.9818 6.49984 10.1818 6.49984C10.0485 6.49984 9.87879 6.48481 9.67273 6.45475C9.46667 6.42469 9.29697 6.39123 9.16364 6.35439C9.49091 5.96651 9.74255 5.5362 9.91855 5.06348C10.0945 4.59075 10.1823 4.09984 10.1818 3.59075C10.1813 3.08166 10.0936 2.59075 9.91855 2.11802C9.74352 1.6453 9.49188 1.21499 9.16364 0.827114C9.33333 0.766508 9.50303 0.726993 9.67273 0.708568C9.84242 0.690144 10.0121 0.681174 10.1818 0.681659C10.9818 0.681659 11.6667 0.966508 12.2364 1.5362C12.8061 2.1059 13.0909 2.79075 13.0909 3.59075Z" fill="#ECECEC" fill-opacity="0.5"/>
</svg>
