<svg width="22" height="22" viewBox="0 0 22 22" fill="none" xmlns="http://www.w3.org/2000/svg">
<path d="M3.38477 10.5303V9.52539C3.38477 8.6276 3.62858 7.94401 4.11621 7.47461C4.60384 7.00065 5.31478 6.76367 6.24902 6.76367H8.66211C9.19987 6.70443 9.76497 6.611 10.3574 6.4834C10.9544 6.35124 11.5583 6.1849 12.1689 5.98438C12.7796 5.7793 13.3766 5.5446 13.96 5.28027C14.5479 5.01595 15.0993 4.71973 15.6143 4.3916V5.60156C15.0993 5.92057 14.5615 6.2054 14.001 6.45605C13.4404 6.70671 12.8617 6.92546 12.2646 7.1123C11.6676 7.29915 11.0547 7.45638 10.4258 7.58398C9.79688 7.70703 9.16113 7.80046 8.51855 7.86426H6.24902C5.62467 7.86426 5.1735 7.99414 4.89551 8.25391C4.62207 8.51367 4.48535 8.9375 4.48535 9.52539V10.5303C4.48535 11.1182 4.62207 11.542 4.89551 11.8018C5.1735 12.0615 5.62467 12.1914 6.24902 12.1914H8.58008C9.21354 12.2552 9.83789 12.3486 10.4531 12.4717C11.0684 12.5947 11.6699 12.7497 12.2578 12.9365C12.8503 13.1234 13.4268 13.3421 13.9873 13.5928C14.5479 13.8434 15.0902 14.1283 15.6143 14.4473V15.6641C15.0765 15.3359 14.5205 15.0397 13.9463 14.7754C13.3766 14.5111 12.7933 14.2809 12.1963 14.085C11.6038 13.889 11.0068 13.7249 10.4053 13.5928C9.80827 13.4606 9.21354 13.3604 8.62109 13.292H6.24902C5.31478 13.292 4.60384 13.055 4.11621 12.5811C3.62858 12.1071 3.38477 11.4235 3.38477 10.5303ZM9.74219 13.2031L10.2754 15.9512C10.3665 16.4069 10.321 16.7852 10.1387 17.0859C9.96094 17.3867 9.70573 17.5895 9.37305 17.6943C9.1543 17.7627 8.91048 17.7878 8.6416 17.7695C8.37272 17.7513 8.1084 17.651 7.84863 17.4688C7.58887 17.2865 7.36556 16.988 7.17871 16.5732L5.59961 13.0732H6.7207L8.26562 16.375C8.3431 16.5391 8.44792 16.6439 8.58008 16.6895C8.7168 16.735 8.84212 16.7373 8.95605 16.6963C9.06543 16.6553 9.15202 16.5846 9.21582 16.4844C9.28418 16.3887 9.30469 16.2656 9.27734 16.1152L8.70312 13.2031H9.74219ZM7.69824 7.2832H8.80566V12.7725H7.69824V7.2832ZM15.2246 14.9805V5.02734C15.2246 4.6901 15.2952 4.39616 15.4365 4.14551C15.5778 3.8903 15.776 3.69206 16.0312 3.55078C16.2865 3.40951 16.5804 3.33887 16.9131 3.33887C17.2549 3.33887 17.5511 3.40951 17.8018 3.55078C18.057 3.69206 18.2552 3.8903 18.3965 4.14551C18.5378 4.39616 18.6084 4.6901 18.6084 5.02734V14.9805C18.6084 15.3177 18.5378 15.6117 18.3965 15.8623C18.2552 16.1175 18.057 16.3158 17.8018 16.457C17.5511 16.5983 17.2549 16.6689 16.9131 16.6689C16.5804 16.6689 16.2865 16.5983 16.0312 16.457C15.776 16.3158 15.5778 16.1175 15.4365 15.8623C15.2952 15.6117 15.2246 15.3177 15.2246 14.9805ZM16.332 14.9805C16.332 15.1582 16.3844 15.3018 16.4893 15.4111C16.5941 15.516 16.7354 15.5684 16.9131 15.5684C17.0908 15.5684 17.2344 15.516 17.3438 15.4111C17.4531 15.3018 17.5078 15.1582 17.5078 14.9805V5.02734C17.5078 4.84961 17.4531 4.70833 17.3438 4.60352C17.2344 4.49414 17.0908 4.43945 16.9131 4.43945C16.7354 4.43945 16.5941 4.49414 16.4893 4.60352C16.3844 4.70833 16.332 4.84961 16.332 5.02734V14.9805Z" fill="#ECECEC" fill-opacity="0.75"/>
</svg>
