<svg width="17" height="11" viewBox="0 0 17 11" fill="none" xmlns="http://www.w3.org/2000/svg">
<path d="M9.83824 10.0849C9.44772 10.4754 8.81455 10.4754 8.42403 10.0849L4.51813 6.17899C4.32101 5.98186 4.32112 5.66222 4.51838 5.46523C4.71545 5.26844 5.0347 5.26855 5.23163 5.46548L8.42403 8.65788C8.81455 9.0484 9.44772 9.0484 9.83824 8.65788L17.9301 0.565984C18.1273 0.368859 18.4469 0.368971 18.6439 0.566234C18.8407 0.763302 18.8406 1.08256 18.6436 1.27949L9.83824 10.0849Z" fill="#2571FF"/>
<path d="M5.83824 10.0849C5.44772 10.4754 4.81455 10.4754 4.42403 10.0849L0.518133 6.17899C0.321008 5.98186 0.32112 5.66222 0.518383 5.46523C0.715451 5.26844 1.0347 5.26855 1.23163 5.46548L4.42403 8.65788C4.81455 9.0484 5.44772 9.0484 5.83824 8.65788L13.9301 0.565984C14.1273 0.368859 14.4469 0.368971 14.6439 0.566234C14.8407 0.763302 14.8406 1.08256 14.6436 1.27949L5.83824 10.0849Z" fill="#2571FF"/>
</svg>
