<svg width="26" height="26" viewBox="0 0 26 26" fill="none" xmlns="http://www.w3.org/2000/svg">
<path d="M12.3706 2.25875H3.52681C2.85665 2.25875 2.21395 2.52497 1.74008 2.99884C1.26622 3.47271 1 4.11541 1 4.78556V22.4732C1 23.1433 1.26622 23.786 1.74008 24.2599C2.21395 24.7338 2.85665 25 3.52681 25H21.2144C21.8846 25 22.5273 24.7338 23.0012 24.2599C23.475 23.786 23.7412 23.1433 23.7412 22.4732V13.6294M20.4248 1.78498C20.9274 1.28236 21.6091 1 22.3199 1C23.0307 1 23.7124 1.28236 24.215 1.78498C24.7176 2.28759 25 2.96928 25 3.68008C25 4.39088 24.7176 5.07257 24.215 5.57519L12.828 16.9635C12.528 17.2632 12.1574 17.4826 11.7503 17.6015L8.12054 18.6628C8.01182 18.6945 7.89658 18.6964 7.78688 18.6683C7.67718 18.6402 7.57706 18.5831 7.49698 18.503C7.41691 18.4229 7.35983 18.3228 7.33172 18.2131C7.30362 18.1034 7.30552 17.9882 7.33723 17.8795L8.39849 14.2497C8.51791 13.843 8.73775 13.4728 9.03777 13.1733L20.4248 1.78498Z" stroke="#2571FF" stroke-width="2" stroke-linecap="round" stroke-linejoin="round"/>
</svg>
