<svg width="238" height="225" viewBox="0 0 238 225" fill="none" xmlns="http://www.w3.org/2000/svg">
<path d="M6.5 201.848C2.33333 197.681 0.41276 193.384 0.738281 188.957C1.12891 184.595 3.70052 180.201 8.45312 175.773L124.078 68.0586L131.695 75.5781L16.8516 182.707C14.3776 184.921 13.0104 187.069 12.75 189.152C12.4896 191.236 13.5638 193.482 15.9727 195.891L28.8633 208.684C31.2721 211.092 33.5182 212.167 35.6016 211.906C37.6849 211.646 39.8333 210.311 42.0469 207.902L147.906 91.6914L155.426 99.3086L48.9805 216.203C44.4883 221.086 40.0286 223.69 35.6016 224.016C31.2396 224.341 26.9753 222.421 22.8086 218.254L6.5 201.848ZM71.2461 20.8906C78.082 14.0547 85.7969 8.97656 94.3906 5.65625C103.049 2.33594 112.066 0.838542 121.441 1.16406C130.816 1.42448 140.061 3.57292 149.176 7.60938C158.355 11.5807 166.884 17.4727 174.762 25.2852L196.344 46.7695C199.078 49.5039 200.868 52.0755 201.715 54.4844C202.561 56.8932 202.659 59.5625 202.008 62.4922L199.664 73.625L207.379 81.3398L213.043 80.9492C215.712 80.819 217.991 81.112 219.879 81.8281C221.767 82.5443 223.915 84.1068 226.324 86.5156L234.137 94.2305C236.09 96.2487 237.066 98.3646 237.066 100.578C237.132 102.792 236.188 104.875 234.234 106.828L204.742 136.418C202.724 138.436 200.576 139.413 198.297 139.348C196.083 139.283 193.967 138.241 191.949 136.223L184.234 128.703C181.826 126.294 180.263 124.113 179.547 122.16C178.896 120.207 178.668 117.896 178.863 115.227L179.156 109.66L171.246 101.75L159.82 103.898C157.086 104.419 154.71 104.484 152.691 104.094C150.673 103.703 148.622 102.434 146.539 100.285L123.59 77.2383C121.051 74.6992 119.423 71.9974 118.707 69.1328C118.056 66.2031 118.512 62.8503 120.074 59.0742L126.715 43.4492C119.488 38.5013 112.034 35.7995 104.352 35.3438C96.6693 34.888 88.7917 35.474 80.7188 37.1016C78.0495 37.7526 75.7383 37.6875 73.7852 36.9062C71.832 36.125 70.3346 34.9531 69.293 33.3906C68.1862 31.6979 67.7305 29.6797 67.9258 27.3359C68.1862 24.9922 69.293 22.8438 71.2461 20.8906ZM82.2812 24.6016C81.5 25.3177 81.2396 26.0013 81.5 26.6523C81.8255 27.3034 82.4766 27.5312 83.4531 27.3359C94.3255 24.6016 104.514 24.5039 114.02 27.043C123.525 29.5169 132.086 34.2044 139.703 41.1055L131.012 61.418C130.1 63.5013 129.742 65.2591 129.938 66.6914C130.198 68.0586 131.109 69.4583 132.672 70.8906L152.301 90.6172C153.733 91.9844 155.035 92.8307 156.207 93.1562C157.444 93.4818 159.007 93.4492 160.895 93.0586L175.445 90.5195L189.801 104.875L189.215 114.25C189.15 115.682 189.28 116.822 189.605 117.668C189.931 118.449 190.615 119.393 191.656 120.5L198.395 127.238L225.055 100.676L218.316 93.9375C217.21 92.8307 216.233 92.1471 215.387 91.8867C214.605 91.5612 213.531 91.431 212.164 91.4961L202.691 92.082L188.141 77.7266L191.168 63.3711C191.624 61.418 191.656 59.7904 191.266 58.4883C190.875 57.1862 189.996 55.8841 188.629 54.582L164.996 31.0469C159.462 25.513 153.18 21.151 146.148 17.9609C139.182 14.7057 131.923 12.7201 124.371 12.0039C116.884 11.2878 109.495 11.9714 102.203 14.0547C94.9766 16.0729 88.3359 19.5885 82.2812 24.6016Z" fill="#F24A4A"/>
</svg>
