<svg width="15" height="15" viewBox="0 0 15 15" fill="none" xmlns="http://www.w3.org/2000/svg">
<path d="M2.25781 14.8828C1.84115 14.8828 1.51302 14.7891 1.27344 14.6016C1.03906 14.4193 0.921875 14.1667 0.921875 13.8438C0.921875 13.3385 1.07292 12.8099 1.375 12.2578C1.67708 11.7005 2.11458 11.1797 2.6875 10.6953C3.26042 10.2057 3.95052 9.8099 4.75781 9.50781C5.57031 9.20052 6.48177 9.04688 7.49219 9.04688C8.50781 9.04688 9.41927 9.20052 10.2266 9.50781C11.0391 9.8099 11.7292 10.2057 12.2969 10.6953C12.8698 11.1797 13.3073 11.7005 13.6094 12.2578C13.9167 12.8099 14.0703 13.3385 14.0703 13.8438C14.0703 14.1667 13.9505 14.4193 13.7109 14.6016C13.4766 14.7891 13.151 14.8828 12.7344 14.8828H2.25781ZM7.5 7.64844C6.94271 7.64844 6.42708 7.4974 5.95312 7.19531C5.47917 6.88802 5.09635 6.47656 4.80469 5.96094C4.51823 5.4401 4.375 4.85677 4.375 4.21094C4.375 3.57552 4.51823 3.0026 4.80469 2.49219C5.09635 1.98177 5.47917 1.57812 5.95312 1.28125C6.42708 0.984375 6.94271 0.835938 7.5 0.835938C8.05729 0.835938 8.57292 0.981771 9.04688 1.27344C9.52083 1.5651 9.90104 1.96615 10.1875 2.47656C10.4792 2.98177 10.625 3.55469 10.625 4.19531C10.625 4.84635 10.4792 5.43229 10.1875 5.95312C9.90104 6.47396 9.52083 6.88802 9.04688 7.19531C8.57292 7.4974 8.05729 7.64844 7.5 7.64844Z" fill="#ECECEC"/>
</svg>
