<svg width="22" height="17" viewBox="0 0 22 17" fill="none" xmlns="http://www.w3.org/2000/svg">
<path d="M18.2687 1.82785C16.9387 1.20785 15.4987 0.757849 13.9987 0.497849C13.9855 0.497428 13.9724 0.499896 13.9603 0.505079C13.9482 0.510263 13.9374 0.518035 13.9287 0.527849C13.7487 0.857849 13.5387 1.28785 13.3987 1.61785C11.8077 1.37785 10.1897 1.37785 8.59865 1.61785C8.45865 1.27785 8.24865 0.857849 8.05865 0.527849C8.04865 0.507849 8.01865 0.497849 7.98865 0.497849C6.48865 0.757849 5.05865 1.20785 3.71865 1.82785C3.70865 1.82785 3.69865 1.83785 3.68865 1.84785C0.968652 5.91785 0.218652 9.87785 0.588652 13.7978C0.588652 13.8178 0.598652 13.8378 0.618652 13.8478C2.41865 15.1678 4.14865 15.9678 5.85865 16.4978C5.88865 16.5078 5.91865 16.4978 5.92865 16.4778C6.32865 15.9278 6.68865 15.3478 6.99865 14.7378C7.01865 14.6978 6.99865 14.6578 6.95865 14.6478C6.38865 14.4278 5.84865 14.1678 5.31865 13.8678C5.27865 13.8478 5.27865 13.7878 5.30865 13.7578C5.41865 13.6778 5.52865 13.5878 5.63865 13.5078C5.65865 13.4878 5.68865 13.4878 5.70865 13.4978C9.14865 15.0678 12.8587 15.0678 16.2587 13.4978C16.2787 13.4878 16.3087 13.4878 16.3287 13.5078C16.4387 13.5978 16.5487 13.6778 16.6587 13.7678C16.6987 13.7978 16.6987 13.8578 16.6487 13.8778C16.1287 14.1878 15.5787 14.4378 15.0087 14.6578C14.9687 14.6678 14.9587 14.7178 14.9687 14.7478C15.2887 15.3578 15.6487 15.9378 16.0387 16.4878C16.0687 16.4978 16.0987 16.5078 16.1287 16.4978C17.8487 15.9678 19.5787 15.1678 21.3787 13.8478C21.3987 13.8378 21.4087 13.8178 21.4087 13.7978C21.8487 9.26785 20.6786 5.33785 18.3087 1.84785C18.2987 1.83785 18.2887 1.82785 18.2687 1.82785ZM7.51865 11.4078C6.48865 11.4078 5.62865 10.4578 5.62865 9.28785C5.62865 8.11785 6.46865 7.16785 7.51865 7.16785C8.57865 7.16785 9.41865 8.12785 9.40865 9.28785C9.40865 10.4578 8.56865 11.4078 7.51865 11.4078ZM14.4887 11.4078C13.4587 11.4078 12.5987 10.4578 12.5987 9.28785C12.5987 8.11785 13.4387 7.16785 14.4887 7.16785C15.5487 7.16785 16.3887 8.12785 16.3787 9.28785C16.3787 10.4578 15.5487 11.4078 14.4887 11.4078Z" fill="#ECECEC"/>
</svg>
