<svg width="20" height="21" viewBox="0 0 20 21" fill="none" xmlns="http://www.w3.org/2000/svg">
<path d="M5.52423 0.819827C6.27519 1.07422 6.9896 1.42588 7.64923 1.86583C8.58081 1.62774 9.53871 1.50813 10.5002 1.50983C11.4932 1.50983 12.4512 1.63383 13.3492 1.86483C14.0086 1.4253 14.7227 1.07399 15.4732 0.819827C16.1702 0.582827 17.1632 0.198828 17.7532 0.851828C18.1532 1.29583 18.2532 2.03983 18.3242 2.60783C18.4042 3.24183 18.4232 4.06783 18.2132 4.88783C19.0162 5.92483 19.5002 7.16183 19.5002 8.50983C19.5002 10.5518 18.3942 12.3248 16.7572 13.5528C15.9694 14.1364 15.0956 14.5938 14.1672 14.9088C14.3812 15.3988 14.5002 15.9408 14.5002 16.5098V19.5098C14.5002 19.775 14.3949 20.0294 14.2073 20.2169C14.0198 20.4045 13.7654 20.5098 13.5002 20.5098H7.50023C7.23501 20.5098 6.98066 20.4045 6.79312 20.2169C6.60559 20.0294 6.50023 19.775 6.50023 19.5098V18.5188C5.54523 18.6358 4.74423 18.5318 4.06323 18.2428C3.35123 17.9408 2.85523 17.4728 2.48223 17.0248C2.12823 16.6008 1.74223 15.6448 1.18423 15.4588C1.0596 15.4173 0.944374 15.3517 0.845117 15.2657C0.745859 15.1796 0.664519 15.0749 0.605739 14.9574C0.487029 14.7202 0.467421 14.4455 0.551229 14.1938C0.635038 13.9421 0.815397 13.734 1.05263 13.6153C1.28986 13.4966 1.56454 13.477 1.81623 13.5608C2.48223 13.7828 2.91623 14.2628 3.21323 14.6488C3.69323 15.2688 4.08323 16.0788 4.84323 16.4018C5.15623 16.5348 5.61523 16.6218 6.33323 16.5238L6.50023 16.4898C6.50214 15.9456 6.61547 15.4076 6.83323 14.9088C5.90482 14.5938 5.03104 14.1364 4.24323 13.5528C2.60623 12.3248 1.50023 10.5528 1.50023 8.50983C1.50023 7.16383 1.98323 5.92783 2.78423 4.89183C2.57423 4.07183 2.59223 3.24383 2.67223 2.60883L2.67723 2.57083C2.75023 1.98883 2.83523 1.30383 3.24323 0.851828C3.83323 0.198828 4.82723 0.583828 5.52323 0.820828" fill="#ECECEC"/>
</svg>
