<svg width="20" height="21" viewBox="0 0 20 21" fill="none" xmlns="http://www.w3.org/2000/svg">
<path d="M1.2642 6.01C2.0962 4.35324 3.37257 2.96051 4.95063 1.98747C6.52869 1.01443 8.34626 0.499416 10.2002 0.5C12.8952 0.5 15.1592 1.491 16.8902 3.105L14.0232 5.973C12.9862 4.982 11.6682 4.477 10.2002 4.477C7.5952 4.477 5.3902 6.237 4.6052 8.6C4.4052 9.2 4.2912 9.84 4.2912 10.5C4.2912 11.16 4.4052 11.8 4.6052 12.4C5.3912 14.764 7.5952 16.523 10.2002 16.523C11.5452 16.523 12.6902 16.168 13.5862 15.568C14.1056 15.226 14.5503 14.7822 14.8934 14.2635C15.2365 13.7448 15.4708 13.1619 15.5822 12.55H10.2002V8.682H19.6182C19.7362 9.336 19.8002 10.018 19.8002 10.727C19.8002 13.773 18.7102 16.337 16.8182 18.077C15.1642 19.605 12.9002 20.5 10.2002 20.5C8.88683 20.5005 7.58623 20.2422 6.37274 19.7399C5.15925 19.2375 4.05665 18.5009 3.12796 17.5722C2.19927 16.6436 1.46269 15.541 0.96033 14.3275C0.457969 13.114 0.19967 11.8134 0.200196 10.5C0.200196 8.886 0.586196 7.36 1.2642 6.01Z" fill="#ECECEC"/>
</svg>
