<svg width="153" height="241" viewBox="0 0 153 241" fill="none" xmlns="http://www.w3.org/2000/svg">
<path d="M148.5 205C148 230 130 236.5 117 236.5C104 236.5 92.5 237.5 64 236.5C35.5 235.5 3.99993 204 4 174.5V116C4 82 32 100 32 116V149.759C32 150.726 32.7835 151.5 33.75 151.5C34.7165 151.5 35.5 150.778 35.5 149.811V36.5C35.5 18.5 60 19.5 60 36.5V107.504C60 108.884 61.1193 110 62.5 110C63.8807 110 65 108.924 65 107.543V18.5001C65 -0.499777 89.5 -0.999941 89.5 18.5001V103.031C89.5 104.136 90.3954 105 91.5 105C92.6046 105 93.5 104.139 93.5 103.034V27.0001C93.5 6.50011 117 9.00011 117.5 27.0001C117.95 43.199 117.59 101.513 117.514 113.02C117.506 114.126 118.401 115 119.507 115C120.608 115 121.5 114.126 121.5 113.025V54.5C121.5 33.5 148 31 148.5 54.5C149 78 149 180 148.5 205Z" stroke="#F24747" stroke-width="7"/>
</svg>
