<svg width="16" height="17" viewBox="0 0 16 17" fill="none" xmlns="http://www.w3.org/2000/svg">
<path d="M8 16.8281C6.90104 16.8281 5.86979 16.6198 4.90625 16.2031C3.94271 15.7917 3.09635 15.2214 2.36719 14.4922C1.63802 13.7578 1.0651 12.9115 0.648438 11.9531C0.236979 10.9896 0.03125 9.95833 0.03125 8.85938C0.03125 7.76042 0.236979 6.72917 0.648438 5.76562C1.0651 4.80208 1.63802 3.95573 2.36719 3.22656C3.09635 2.4974 3.94271 1.92708 4.90625 1.51562C5.86979 1.09896 6.90104 0.890625 8 0.890625C9.09896 0.890625 10.1302 1.09896 11.0938 1.51562C12.0573 1.92708 12.9036 2.4974 13.6328 3.22656C14.362 3.95573 14.9323 4.80208 15.3438 5.76562C15.7604 6.72917 15.9688 7.76042 15.9688 8.85938C15.9688 9.95833 15.7604 10.9896 15.3438 11.9531C14.9323 12.9115 14.362 13.7578 13.6328 14.4922C12.9036 15.2214 12.0573 15.7917 11.0938 16.2031C10.1302 16.6198 9.09896 16.8281 8 16.8281ZM4.1875 8.86719C4.1875 9.0651 4.2526 9.22656 4.38281 9.35156C4.51302 9.47135 4.67969 9.53125 4.88281 9.53125H7.32812V11.9844C7.32812 12.1875 7.38802 12.3542 7.50781 12.4844C7.63281 12.6094 7.79427 12.6719 7.99219 12.6719C8.19531 12.6719 8.35938 12.6094 8.48438 12.4844C8.61458 12.3542 8.67969 12.1875 8.67969 11.9844V9.53125H11.1328C11.3307 9.53125 11.4948 9.47135 11.625 9.35156C11.7552 9.22656 11.8203 9.0651 11.8203 8.86719C11.8203 8.66406 11.7552 8.5 11.625 8.375C11.5 8.24479 11.3359 8.17969 11.1328 8.17969H8.67969V5.73438C8.67969 5.53125 8.61458 5.36458 8.48438 5.23438C8.35938 5.10417 8.19531 5.03906 7.99219 5.03906C7.79427 5.03906 7.63281 5.10417 7.50781 5.23438C7.38802 5.36458 7.32812 5.53125 7.32812 5.73438V8.17969H4.88281C4.67969 8.17969 4.51302 8.24479 4.38281 8.375C4.2526 8.5 4.1875 8.66406 4.1875 8.86719Z" fill="#ECECEC"/>
</svg>
