<svg width="21" height="22" viewBox="0 0 21 22" fill="none" xmlns="http://www.w3.org/2000/svg">
<path d="M6.56285 3.06285L6.56287 3.06284C6.77846 2.84718 6.89957 2.55473 6.89957 2.24979C6.89957 1.94485 6.77846 1.65239 6.56287 1.43674L6.56284 1.4367C6.34718 1.22111 6.05473 1.1 5.74979 1.1C5.44485 1.1 5.15239 1.22111 4.93674 1.4367L4.93672 1.43672L1.43672 4.93672L1.4367 4.93674C1.22111 5.15239 1.1 5.44485 1.1 5.74979C1.1 6.05473 1.22111 6.34718 1.4367 6.56284L1.43672 6.56285L4.93672 10.0629L4.9367 10.0629L4.93858 10.0647C5.15547 10.2742 5.44596 10.3901 5.74749 10.3875C6.04902 10.3848 6.33745 10.2639 6.55067 10.0507C6.76389 9.83745 6.88483 9.54902 6.88745 9.24749C6.89008 8.94596 6.77416 8.65547 6.56468 8.43858L6.5647 8.43856L6.56285 8.43672L5.02592 6.89979H12.4998C13.6568 6.89979 14.7878 7.24288 15.7499 7.88569C16.7119 8.5285 17.4617 9.44214 17.9045 10.5111C18.3473 11.58 18.4631 12.7563 18.2374 13.8911C18.0117 15.0259 17.4545 16.0682 16.6364 16.8864C15.8182 17.7045 14.7759 18.2617 13.6411 18.4874C12.5063 18.7131 11.33 18.5973 10.2611 18.1545C9.19214 17.7117 8.2785 16.9619 7.63569 15.9999C6.99288 15.0378 6.64979 13.9068 6.64979 12.7498C6.64979 12.4448 6.52863 12.1523 6.31296 11.9366C6.09729 11.7209 5.80479 11.5998 5.49979 11.5998C5.19479 11.5998 4.90228 11.7209 4.68661 11.9366C4.47095 12.1523 4.34979 12.4448 4.34979 12.7498C4.34979 14.3617 4.82778 15.9374 5.72331 17.2777C6.61884 18.6179 7.8917 19.6626 9.38092 20.2794C10.8701 20.8963 12.5088 21.0577 14.0898 20.7432C15.6707 20.4287 17.1229 19.6525 18.2627 18.5127C19.4025 17.3729 20.1787 15.9207 20.4932 14.3398C20.8077 12.7588 20.6463 11.1201 20.0294 9.63092C19.4126 8.1417 18.3679 6.86884 17.0277 5.97331C15.6874 5.07778 14.1117 4.59979 12.4998 4.59979H5.02592L6.56285 3.06285Z" fill="#ECECEC" stroke="#ECECEC" stroke-width="0.3"/>
</svg>
