<svg width="22" height="19" viewBox="0 0 22 19" fill="none" xmlns="http://www.w3.org/2000/svg">
<path fill-rule="evenodd" clip-rule="evenodd" d="M18.9676 1.0325C19.2147 0.928495 19.4852 0.892623 19.7509 0.928621C20.0165 0.96462 20.2677 1.07117 20.4783 1.23719C20.6888 1.40321 20.851 1.62262 20.9479 1.87259C21.0449 2.12256 21.0731 2.39394 21.0296 2.6585L18.7616 16.4155C18.5416 17.7425 17.0856 18.5035 15.8686 17.8425C14.8506 17.2895 13.3386 16.4375 11.9786 15.5485C11.2986 15.1035 9.21557 13.6785 9.47157 12.6645C9.69157 11.7975 13.1916 8.5395 15.1916 6.6025C15.9766 5.8415 15.6186 5.4025 14.6916 6.1025C12.3896 7.8405 8.69357 10.4835 7.47157 11.2275C6.39357 11.8835 5.83157 11.9955 5.15957 11.8835C3.93357 11.6795 2.79657 11.3635 1.86857 10.9785C0.614572 10.4585 0.675572 8.7345 1.86757 8.2325L18.9676 1.0325Z" fill="#ECECEC"/>
</svg>
