<svg width="10" height="11" viewBox="0 0 10 11" fill="none" xmlns="http://www.w3.org/2000/svg">
<path d="M3.52906 0.578125V0.015625H6.47094V0.578125H3.52906ZM4.71875 6.83087H5.28125V3.88844H4.71875V6.83087ZM5 10.9844C4.37825 10.9844 3.79456 10.867 3.24894 10.6322C2.70331 10.3975 2.22613 10.0758 1.81737 9.667C1.40863 9.25825 1.08687 8.78087 0.852125 8.23487C0.617375 7.68887 0.5 7.10537 0.5 6.48438C0.5 5.86338 0.617375 5.27969 0.852125 4.73331C1.08687 4.18694 1.40863 3.70975 1.81737 3.30175C2.22613 2.89375 2.7035 2.572 3.2495 2.3365C3.7955 2.101 4.379 1.98363 5 1.98438C5.54525 1.98438 6.0725 2.08188 6.58175 2.27688C7.091 2.47187 7.55825 2.74731 7.9835 3.10319L8.59775 2.48837L8.996 2.88663L8.38175 3.50087C8.738 3.9265 9.01344 4.39394 9.20806 4.90319C9.40269 5.41244 9.5 5.9395 9.5 6.48438C9.5 7.10612 9.38263 7.68981 9.14787 8.23544C8.91313 8.78106 8.59138 9.25825 8.18263 9.667C7.77388 10.0758 7.2965 10.3975 6.7505 10.6322C6.2045 10.867 5.621 10.9844 5 10.9844ZM5 10.4219C6.0875 10.4219 7.01563 10.0375 7.78438 9.26875C8.55313 8.5 8.9375 7.57188 8.9375 6.48438C8.9375 5.39687 8.55313 4.46875 7.78438 3.7C7.01563 2.93125 6.0875 2.54688 5 2.54688C3.9125 2.54688 2.98438 2.93125 2.21563 3.7C1.44688 4.46875 1.0625 5.39687 1.0625 6.48438C1.0625 7.57188 1.44688 8.5 2.21563 9.26875C2.98438 10.0375 3.9125 10.4219 5 10.4219Z" fill="#ECECEC" fill-opacity="0.5"/>
</svg>
