<svg width="23" height="23" viewBox="0 0 23 23" fill="none" xmlns="http://www.w3.org/2000/svg">
<path d="M20.9336 2.11719C21.5273 2.71094 21.9023 3.42187 22.0586 4.25C22.2227 5.07031 22.3047 5.98047 22.3047 6.98047V16.0859C22.3047 17.0938 22.2227 18.0078 22.0586 18.8281C21.9023 19.6484 21.5273 20.3594 20.9336 20.9609C20.332 21.5547 19.6172 21.9336 18.7891 22.0977C17.9609 22.2617 17.0469 22.3438 16.0469 22.3438H6.94141C5.94141 22.3438 5.02734 22.2617 4.19922 22.0977C3.37891 21.9336 2.66797 21.5547 2.06641 20.9609C1.46484 20.3594 1.08594 19.6484 0.929688 18.8281C0.773438 18.0078 0.695312 17.0938 0.695312 16.0859V6.95703C0.695312 5.97266 0.773438 5.07031 0.929688 4.25C1.09375 3.42969 1.47266 2.71875 2.06641 2.11719C2.66797 1.52344 3.37891 1.14453 4.19922 0.980469C5.02734 0.816406 5.93359 0.734375 6.91797 0.734375H16.0469C17.0469 0.734375 17.9609 0.816406 18.7891 0.980469C19.6172 1.14453 20.332 1.52344 20.9336 2.11719ZM20.418 6.66406C20.418 6.0625 20.3633 5.47266 20.2539 4.89453C20.1445 4.31641 19.9102 3.85156 19.5508 3.5C19.1992 3.14062 18.7305 2.90625 18.1445 2.79688C17.5664 2.67969 16.9766 2.62109 16.375 2.62109H6.66016C6.04297 2.62109 5.4375 2.67969 4.84375 2.79688C4.25781 2.90625 3.78906 3.13672 3.4375 3.48828C3.08594 3.84766 2.85547 4.32031 2.74609 4.90625C2.63672 5.48438 2.58203 6.08203 2.58203 6.69922V16.4141C2.58203 17.0156 2.63672 17.6055 2.74609 18.1836C2.85547 18.7617 3.08594 19.2266 3.4375 19.5781C3.79688 19.9297 4.26562 20.1641 4.84375 20.2812C5.42969 20.3984 6.02344 20.457 6.625 20.457H16.375C16.9766 20.457 17.5664 20.3984 18.1445 20.2812C18.7305 20.1719 19.1992 19.9375 19.5508 19.5781C19.9023 19.2266 20.1328 18.7617 20.2422 18.1836C20.3594 17.6055 20.418 17.0156 20.418 16.4141V6.66406ZM6.07422 11.5391C6.07422 11.2422 6.16406 11.0039 6.34375 10.8242C6.53125 10.6367 6.77734 10.543 7.08203 10.543H10.5273V7.09766C10.5273 6.80078 10.6172 6.55859 10.7969 6.37109C10.9766 6.18359 11.207 6.08984 11.4883 6.08984C11.7852 6.08984 12.0234 6.18359 12.2031 6.37109C12.3906 6.55078 12.4844 6.79297 12.4844 7.09766V10.543H15.9414C16.2383 10.543 16.4766 10.6367 16.6562 10.8242C16.8438 11.0039 16.9375 11.2422 16.9375 11.5391C16.9375 11.8203 16.8438 12.0508 16.6562 12.2305C16.4766 12.4102 16.2383 12.5 15.9414 12.5H12.4844V15.957C12.4844 16.2539 12.3906 16.4961 12.2031 16.6836C12.0234 16.8633 11.7852 16.9531 11.4883 16.9531C11.207 16.9531 10.9766 16.8633 10.7969 16.6836C10.6172 16.4961 10.5273 16.2539 10.5273 15.957V12.5H7.08203C6.78516 12.5 6.54297 12.4102 6.35547 12.2305C6.16797 12.0508 6.07422 11.8203 6.07422 11.5391Z" fill="black"/>
</svg>
