<svg width="288" height="288" viewBox="0 0 288 288" fill="none" xmlns="http://www.w3.org/2000/svg">
<path d="M260.484 135.516L164.484 39.5164C162.806 37.8387 160.668 36.6962 158.34 36.2334C156.013 35.7706 153.601 36.0082 151.408 36.9162C149.216 37.8243 147.342 39.362 146.023 41.3349C144.705 43.3078 144.001 45.6274 144 48.0004V90.5404C111.219 93.5739 80.7507 108.731 58.5563 133.045C36.3618 157.359 24.0393 189.08 24 222V240C24.0019 242.491 24.7789 244.92 26.2233 246.949C27.6677 248.979 29.7078 250.509 32.0607 251.326C34.4136 252.144 36.9627 252.209 39.3544 251.513C41.746 250.817 43.8617 249.393 45.408 247.44C57.1644 233.46 71.5891 221.962 87.8393 213.62C104.09 205.277 121.84 200.257 140.052 198.852C140.652 198.78 142.152 198.66 144 198.54V240C144.001 242.373 144.705 244.693 146.023 246.666C147.342 248.639 149.216 250.176 151.408 251.084C153.601 251.993 156.013 252.23 158.34 251.767C160.668 251.305 162.806 250.162 164.484 248.484L260.484 152.484C262.734 150.234 263.997 147.182 263.997 144C263.997 140.818 262.734 137.767 260.484 135.516ZM168 211.032V186C168 182.818 166.736 179.766 164.485 177.515C162.235 175.265 159.183 174 156 174C152.94 174 140.448 174.6 137.256 175.02C104.914 178 74.129 190.288 48.624 210.396C51.5189 183.93 64.0745 159.461 83.8867 141.674C103.699 123.888 129.375 114.035 156 114C159.183 114 162.235 112.736 164.485 110.486C166.736 108.235 168 105.183 168 102V76.9684L235.032 144L168 211.032Z" fill="#ECECEC" fill-opacity="0.35"/>
</svg>
