<svg width="26" height="26" viewBox="0 0 26 26" fill="none" xmlns="http://www.w3.org/2000/svg">
<path d="M17.4211 4.78947H25M21.2105 1V8.57895M23.7368 13V22.4737C23.7368 23.1437 23.4707 23.7863 22.9969 24.2601C22.5231 24.7338 21.8805 25 21.2105 25H3.52632C2.8563 25 2.21372 24.7338 1.73994 24.2601C1.26616 23.7863 1 23.1437 1 22.4737V4.78947C1 4.11945 1.26616 3.47687 1.73994 3.0031C2.21372 2.52932 2.8563 2.26316 3.52632 2.26316H13M23.7368 17.4211L19.8387 13.5229C19.365 13.0493 18.7225 12.7833 18.0526 12.7833C17.3827 12.7833 16.7403 13.0493 16.2665 13.5229L4.78947 25M11.1053 9.8421C11.1053 11.2374 9.97419 12.3684 8.57895 12.3684C7.1837 12.3684 6.05263 11.2374 6.05263 9.8421C6.05263 8.44686 7.1837 7.31579 8.57895 7.31579C9.97419 7.31579 11.1053 8.44686 11.1053 9.8421Z" stroke="#ECECEC" stroke-opacity="0.5" stroke-width="2" stroke-linecap="round" stroke-linejoin="round"/>
</svg>
