<svg width="26" height="26" viewBox="0 0 26 26" fill="none" xmlns="http://www.w3.org/2000/svg">
<path d="M11.6948 14.3037C11.4655 14.0748 11.1922 13.8948 10.8914 13.7743L1.37652 9.95877C1.26292 9.91318 1.16597 9.83394 1.0987 9.73166C1.03144 9.62939 0.997062 9.50899 1.0002 9.38662C1.00333 9.26425 1.04382 9.14577 1.11624 9.04708C1.18866 8.94838 1.28953 8.8742 1.40532 8.8345L24.2027 1.03539C24.309 0.996993 24.4241 0.989664 24.5344 1.01427C24.6447 1.03887 24.7458 1.09438 24.8257 1.17431C24.9056 1.25424 24.9611 1.35528 24.9857 1.46561C25.0103 1.57594 25.003 1.69099 24.9646 1.79731L17.1655 24.5947C17.1258 24.7105 17.0516 24.8113 16.9529 24.8838C16.8542 24.9562 16.7357 24.9967 16.6134 24.9998C16.491 25.0029 16.3706 24.9686 16.2683 24.9013C16.1661 24.834 16.0868 24.7371 16.0412 24.6235L12.2257 15.1062C12.1047 14.8056 11.9241 14.5326 11.6948 14.3037ZM11.6948 14.3037L24.8218 1.17938" stroke="#2571FF" stroke-width="2" stroke-linecap="round" stroke-linejoin="round"/>
</svg>
