<svg width="18" height="18" viewBox="0 0 18 18" fill="none" xmlns="http://www.w3.org/2000/svg">
<path d="M7.98645 3.4608C9.84986 3.23872 11.7347 3.63265 13.3533 4.58244C14.9718 5.53222 16.235 6.98566 16.95 8.7208C17.0167 8.90041 17.0167 9.09799 16.95 9.2776C16.656 9.9904 16.2675 10.6604 15.7949 11.2696M10.6671 10.7264C10.2145 11.1636 9.60828 11.4055 8.97904 11.4C8.3498 11.3945 7.74788 11.1421 7.30292 10.6972C6.85796 10.2522 6.60557 9.65023 6.6001 9.02096C6.59464 8.39169 6.83653 7.78545 7.27369 7.3328M13.383 13.3992C12.3218 14.0278 11.1379 14.4208 9.91144 14.5515C8.68502 14.6822 7.44484 14.5476 6.27504 14.1567C5.10524 13.7658 4.03321 13.1279 3.13167 12.2862C2.23013 11.4445 1.52018 10.4187 1.05 9.2784C0.983333 9.09879 0.983333 8.90121 1.05 8.7216C1.75927 7.00148 3.00724 5.5578 4.60662 4.6072M1.0004 1L16.9996 17" stroke="#ECECEC" stroke-opacity="0.75" stroke-linecap="round" stroke-linejoin="round"/>
</svg>
