<svg width="50" height="50" viewBox="0 0 50 50" fill="none" xmlns="http://www.w3.org/2000/svg">
<path d="M24.3706 14.2588H15.5268C14.8567 14.2588 14.214 14.525 13.7401 14.9988C13.2662 15.4727 13 16.1154 13 16.7856V34.4732C13 35.1433 13.2662 35.786 13.7401 36.2599C14.214 36.7338 14.8567 37 15.5268 37H33.2144C33.8846 37 34.5273 36.7338 35.0012 36.2599C35.475 35.786 35.7412 35.1433 35.7412 34.4732V25.6294M32.4248 13.785C32.9274 13.2824 33.6091 13 34.3199 13C35.0307 13 35.7124 13.2824 36.215 13.785C36.7176 14.2876 37 14.9693 37 15.6801C37 16.3909 36.7176 17.0726 36.215 17.5752L24.828 28.9635C24.528 29.2632 24.1574 29.4826 23.7503 29.6015L20.1205 30.6628C20.0118 30.6945 19.8966 30.6964 19.7869 30.6683C19.6772 30.6402 19.5771 30.5831 19.497 30.503C19.4169 30.4229 19.3598 30.3228 19.3317 30.2131C19.3036 30.1034 19.3055 29.9882 19.3372 29.8795L20.3985 26.2497C20.5179 25.843 20.7378 25.4728 21.0378 25.1733L32.4248 13.785Z" stroke="#2571FF" stroke-width="2" stroke-linecap="round" stroke-linejoin="round"/>
</svg>
