<svg width="27" height="24" viewBox="0 0 27 24" fill="none" xmlns="http://www.w3.org/2000/svg">
<path d="M20.7 23C20.7 20.4068 19.6886 17.9198 17.8882 16.0861C16.0879 14.2524 13.6461 13.2222 11.1 13.2222M11.1 13.2222C8.55392 13.2222 6.11212 14.2524 4.31178 16.0861C2.51143 17.9198 1.5 20.4068 1.5 23M11.1 13.2222C14.4137 13.2222 17.1 10.4862 17.1 7.11111C17.1 3.73604 14.4137 1 11.1 1C7.78629 1 5.1 3.73604 5.1 7.11111C5.1 10.4862 7.78629 13.2222 11.1 13.2222ZM25.5 21.7778C25.5 17.6589 23.1 13.8333 20.7 12C21.4889 11.3972 22.1197 10.6055 22.5367 9.69522C22.9536 8.78488 23.1438 7.78391 23.0904 6.78087C23.037 5.77783 22.7417 4.80366 22.2306 3.94458C21.7194 3.08549 21.0083 2.36799 20.16 1.85556" stroke="currentColor" stroke-width="2" stroke-linecap="round" stroke-linejoin="round"/>
</svg>
