<svg width="27" height="28" viewBox="0 0 27 28" fill="none" xmlns="http://www.w3.org/2000/svg">
<path d="M13.7928 1H13.2072C12.5014 1 11.8244 1.27393 11.3253 1.76152C10.8262 2.24912 10.5458 2.91044 10.5458 3.6V3.834C10.5453 4.28994 10.4221 4.73775 10.1885 5.13249C9.95495 5.52723 9.61923 5.85503 9.21504 6.083L8.64282 6.408C8.23823 6.6362 7.77927 6.75633 7.31209 6.75633C6.8449 6.75633 6.38595 6.6362 5.98135 6.408L5.78174 6.304C5.17102 5.95984 4.44547 5.86648 3.76435 6.0444C3.08324 6.22232 2.50222 6.657 2.14884 7.253L1.85608 7.747C1.50378 8.34362 1.40821 9.05241 1.59034 9.7178C1.77247 10.3832 2.21742 10.9508 2.82751 11.296L3.02712 11.426C3.42937 11.6529 3.76384 11.9786 3.9973 12.3709C4.23075 12.7631 4.35505 13.2083 4.35786 13.662V14.325C4.35972 14.7831 4.23763 15.2336 4.00394 15.6309C3.77026 16.0281 3.43328 16.3579 3.02712 16.587L2.82751 16.704C2.21742 17.0492 1.77247 17.6168 1.59034 18.2822C1.40821 18.9476 1.50378 19.6564 1.85608 20.253L2.14884 20.747C2.50222 21.343 3.08324 21.7777 3.76435 21.9556C4.44547 22.1335 5.17102 22.0402 5.78174 21.696L5.98135 21.592C6.38595 21.3638 6.8449 21.2437 7.31209 21.2437C7.77927 21.2437 8.23823 21.3638 8.64282 21.592L9.21504 21.917C9.61923 22.145 9.95495 22.4728 10.1885 22.8675C10.4221 23.2623 10.5453 23.7101 10.5458 24.166V24.4C10.5458 25.0896 10.8262 25.7509 11.3253 26.2385C11.8244 26.7261 12.5014 27 13.2072 27H13.7928C14.4986 27 15.1756 26.7261 15.6747 26.2385C16.1738 25.7509 16.4542 25.0896 16.4542 24.4V24.166C16.4547 23.7101 16.5779 23.2623 16.8115 22.8675C17.045 22.4728 17.3808 22.145 17.785 21.917L18.3572 21.592C18.7618 21.3638 19.2207 21.2437 19.6879 21.2437C20.1551 21.2437 20.6141 21.3638 21.0186 21.592L21.2183 21.696C21.829 22.0402 22.5545 22.1335 23.2356 21.9556C23.9168 21.7777 24.4978 21.343 24.8512 20.747L25.1439 20.24C25.4962 19.6434 25.5918 18.9346 25.4097 18.2692C25.2275 17.6038 24.7826 17.0362 24.1725 16.691L23.9729 16.587C23.5667 16.3579 23.2297 16.0281 22.9961 15.6309C22.7624 15.2336 22.6403 14.7831 22.6421 14.325V13.675C22.6403 13.2169 22.7624 12.7664 22.9961 12.3691C23.2297 11.9719 23.5667 11.6421 23.9729 11.413L24.1725 11.296C24.7826 10.9508 25.2275 10.3832 25.4097 9.7178C25.5918 9.05241 25.4962 8.34362 25.1439 7.747L24.8512 7.253C24.4978 6.657 23.9168 6.22232 23.2356 6.0444C22.5545 5.86648 21.829 5.95984 21.2183 6.304L21.0186 6.408C20.6141 6.6362 20.1551 6.75633 19.6879 6.75633C19.2207 6.75633 18.7618 6.6362 18.3572 6.408L17.785 6.083C17.3808 5.85503 17.045 5.52723 16.8115 5.13249C16.5779 4.73775 16.4547 4.28994 16.4542 3.834V3.6C16.4542 2.91044 16.1738 2.24912 15.6747 1.76152C15.1756 1.27393 14.4986 1 13.7928 1Z" stroke="currentColor" stroke-width="2" stroke-linecap="round" stroke-linejoin="round"/>
<path d="M13.5 17.9C15.7048 17.9 17.4922 16.1539 17.4922 14C17.4922 11.8461 15.7048 10.1 13.5 10.1C11.2952 10.1 9.5078 11.8461 9.5078 14C9.5078 16.1539 11.2952 17.9 13.5 17.9Z" stroke="currentColor" stroke-width="2" stroke-linecap="round" stroke-linejoin="round"/>
</svg>
