<svg width="240" height="240" viewBox="0 0 240 240" fill="none" xmlns="http://www.w3.org/2000/svg">
<path d="M232.174 153.391V224.348C232.174 231.652 226.435 237.391 219.13 237.391H20.8695C13.5652 237.391 7.82605 231.652 7.82605 224.348V153.391C7.82605 146.087 13.5652 140.348 20.8695 140.348C28.1739 140.348 33.913 146.087 33.913 153.391V211.304H206.087V153.391C206.087 146.087 211.826 140.348 219.13 140.348C226.435 140.348 232.174 146.087 232.174 153.391ZM110.609 169.565C112.956 172.174 116.348 173.478 120 173.478C123.652 173.478 126.783 172.174 129.391 169.565L181.304 116.348C186.261 111.13 186.261 103.043 181.043 97.8258C175.826 92.8693 167.739 92.8693 162.522 98.0867L133.043 128.608V15.6519C133.043 8.34753 127.304 2.6084 120 2.6084C112.696 2.6084 106.956 8.34753 106.956 15.6519V128.608L77.2174 98.3475C72.2608 93.1301 63.913 93.1301 58.6956 98.0867C53.4782 103.043 53.4782 111.391 58.4347 116.608L110.609 169.565Z" fill="#ECECEC" fill-opacity="0.35"/>
</svg>
