<svg width="246" height="246" viewBox="0 0 246 246" fill="none" xmlns="http://www.w3.org/2000/svg">
<path d="M222.528 207.973L184.5 170.253C199.261 151.848 206.41 128.487 204.475 104.974C202.541 81.4602 191.672 59.5814 174.102 43.836C156.532 28.0905 133.597 19.6753 110.013 20.3207C86.4285 20.966 63.988 30.6229 47.3053 47.3056C30.6226 63.9883 20.9658 86.4288 20.3204 110.013C19.6751 133.597 28.0903 156.532 43.8357 174.102C59.5811 191.672 81.46 202.542 104.973 204.476C128.487 206.41 151.848 199.261 170.253 184.5L207.973 222.22C208.926 223.181 210.059 223.944 211.308 224.464C212.557 224.984 213.897 225.252 215.25 225.252C216.603 225.252 217.943 224.984 219.192 224.464C220.441 223.944 221.575 223.181 222.528 222.22C224.375 220.309 225.408 217.755 225.408 215.097C225.408 212.438 224.375 209.884 222.528 207.973ZM112.75 184.5C98.5593 184.5 84.6872 180.292 72.888 172.408C61.0887 164.524 51.8923 153.319 46.4618 140.208C41.0312 127.097 39.6103 112.671 42.3788 98.7526C45.1473 84.8345 51.9808 72.0499 62.0152 62.0155C72.0496 51.981 84.8343 45.1475 98.7524 42.379C112.671 39.6105 127.097 41.0314 140.208 46.462C153.318 51.8926 164.524 61.089 172.408 72.8882C180.292 84.6874 184.5 98.5596 184.5 112.75C184.5 131.78 176.941 150.03 163.485 163.485C150.029 176.941 131.779 184.5 112.75 184.5ZM153.75 102.5H71.7501C69.0317 102.5 66.4245 103.58 64.5023 105.503C62.58 107.425 61.5001 110.032 61.5001 112.75C61.5001 115.469 62.58 118.076 64.5023 119.998C66.4245 121.92 69.0317 123 71.7501 123H153.75C156.469 123 159.076 121.92 160.998 119.998C162.92 118.076 164 115.469 164 112.75C164 110.032 162.92 107.425 160.998 105.503C159.076 103.58 156.469 102.5 153.75 102.5Z" fill="#ECECEC" fill-opacity="0.35"/>
</svg>
