<svg width="244" height="244" viewBox="0 0 244 244" fill="none" xmlns="http://www.w3.org/2000/svg">
<path d="M152.5 101.667H122V71.1669C122 68.4706 120.929 65.8846 119.022 63.978C117.116 62.0714 114.53 61.0003 111.833 61.0003C109.137 61.0003 106.551 62.0714 104.644 63.978C102.738 65.8846 101.667 68.4706 101.667 71.1669V101.667H71.1667C68.4703 101.667 65.8844 102.738 63.9778 104.645C62.0711 106.551 61 109.137 61 111.834C61 114.53 62.0711 117.116 63.9778 119.023C65.8844 120.929 68.4703 122 71.1667 122H101.667V152.5C101.667 155.197 102.738 157.783 104.644 159.689C106.551 161.596 109.137 162.667 111.833 162.667C114.53 162.667 117.116 161.596 119.022 159.689C120.929 157.783 122 155.197 122 152.5V122H152.5C155.196 122 157.782 120.929 159.689 119.023C161.596 117.116 162.667 114.53 162.667 111.834C162.667 109.137 161.596 106.551 159.689 104.645C157.782 102.738 155.196 101.667 152.5 101.667ZM220.718 206.282L183 168.869C197.641 150.613 204.731 127.442 202.813 104.12C200.895 80.7978 190.113 59.0969 172.686 43.4795C155.259 27.8621 132.51 19.5153 109.118 20.1554C85.7257 20.7955 63.4677 30.3738 46.9206 46.9209C30.3736 63.4679 20.7952 85.726 20.1551 109.118C19.515 132.511 27.8618 155.259 43.4792 172.686C59.0966 190.114 80.7976 200.895 104.12 202.813C127.442 204.732 150.613 197.641 168.868 183L206.282 220.414C207.227 221.366 208.351 222.123 209.59 222.639C210.829 223.155 212.158 223.421 213.5 223.421C214.842 223.421 216.171 223.155 217.41 222.639C218.649 222.123 219.773 221.366 220.718 220.414C222.551 218.518 223.575 215.984 223.575 213.348C223.575 210.711 222.551 208.178 220.718 206.282ZM111.833 183C97.7579 183 83.9986 178.826 72.2953 171.007C60.592 163.187 51.4703 152.072 46.0839 139.068C40.6975 126.064 39.2881 111.755 42.0341 97.9497C44.7801 84.1447 51.5581 71.464 61.5109 61.5112C71.4637 51.5583 84.1444 44.7803 97.9494 42.0344C111.754 39.2884 126.064 40.6977 139.068 46.0842C152.072 51.4706 163.186 60.5922 171.006 72.2955C178.826 83.9988 183 97.7581 183 111.834C183 130.708 175.502 148.81 162.156 162.156C148.809 175.502 130.708 183 111.833 183Z" fill="#ECECEC" fill-opacity="0.35"/>
</svg>
